<svg id="Background_Simple" data-name="Background Simple" xmlns="http://www.w3.org/2000/svg" xmlns:xlink="http://www.w3.org/1999/xlink" viewBox="0 0 462.86 395.7"><defs><style>.cls-1,.cls-16,.cls-18,.cls-2,.cls-22{fill:#fff;}.cls-14,.cls-17,.cls-18,.cls-19,.cls-2,.cls-20,.cls-21,.cls-8{stroke:#263238;}.cls-14,.cls-2,.cls-7{stroke-miterlimit:10;}.cls-11,.cls-3,.cls-8{fill:#51bdb9;}.cls-4{opacity:0.7;}.cls-5,.cls-7,.cls-9{fill:#263238;}.cls-5,.cls-6{opacity:0.2;}.cls-7{stroke:#fff;}.cls-17,.cls-18,.cls-19,.cls-20,.cls-21,.cls-8{stroke-linecap:round;stroke-linejoin:round;}.cls-10{clip-path:url(#clip-path);}.cls-11,.cls-12,.cls-16{opacity:0.5;}.cls-13,.cls-14,.cls-17{fill:none;}.cls-15{clip-path:url(#clip-path-2);}.cls-19{fill:#757575;}.cls-20{fill:#999;}.cls-21{fill:#bfbfbf;}.cls-22{opacity:0.1;}.cls-23{clip-path:url(#clip-path-3);}</style><clipPath id="clip-path" transform="translate(-18.86 -52.01)"><path id="_Clipping_Path_" data-name="&lt;Clipping Path&gt;" class="cls-1" d="M347.67,388.48l0.12-44.2c0.48-1.79.87-8.35,1.89-12.92,1.73-7.66-5.1-16.9-5.59-17.2-1.92-1.2-6-1.18-6-1.18s-4-4.57-7.57-6a17.83,17.83,0,0,0-7.66-1,36.59,36.59,0,0,0-9.1-5.51,7.48,7.48,0,0,0-7.66,1.44l-4.47,7a5.21,5.21,0,0,0,.61,6.52c2.14,2.11,4.88,1.12,6.26,1.12,1.92,0,2.63-2.16,2.63-2.16s0.47,11.26,0,12.69h0c-0.49,1.43-4.07,4.78-4.07,4.78l-12-15.84a115.63,115.63,0,0,1-10.78-17.77,8.17,8.17,0,0,0-1.35-2.1c-2.1-2.38-6.59-3.07-7.76,1.33a8.62,8.62,0,0,0,.19,4.24c5,14.78,11.37,25.95,17.18,37.59,3.46,6.91,2.17,6.83,3.89,10-0.2.14-.11,0.4-0.32,0.52-0.85,3.36-1.43,6.73-2.28,10.09a46.24,46.24,0,0,0-3.83-12.18,27.46,27.46,0,0,0,.52-7.12,9.35,9.35,0,0,0-3-6.31,6.15,6.15,0,0,0-3.49-1.36A3.64,3.64,0,0,0,280.3,336a36.67,36.67,0,0,1-1,5.41,54,54,0,0,1-2.76,6.79c0,4.46,2.76,3.73,4.77,21.68,1.56,14,19.56,23.21,29.36,33.3l10.44,32.85A202.51,202.51,0,0,0,356,417.79Z"/></clipPath><clipPath id="clip-path-2" transform="translate(-18.86 -52.01)"><path id="_Clipping_Path_2" data-name="&lt;Clipping Path&gt;" class="cls-1" d="M237.2,336.42c-0.43-2-3.24-1.69-3.24-1.69-9.45.56-10.72,15.37-10.72,15.37l-3.38,10.14L218.8,345l0.11-19.67s2.86-18.82,1.58-21.78a4.3,4.3,0,0,0-3.91-2.86c-5.5-1.38-5.82,6.55-5.82,6.55l-4.64,16.18-1.9,17.45-1.58-.85s-0.75-18.51-.43-18.82,2.23-12.8,2.23-12.8,1-2.32,2.32-5.29a6.41,6.41,0,0,0,0-5.29c-2.23-4.55-6.87-2.43-7.82,0a70.49,70.49,0,0,1-3.81,7.19l-5.3,14.49c0.2,3.27-1.68,19.45-1.68,19.45l-1.9-.87-3.07-9.5,2.33-9.73s5.07-5.6,4.23-8.88-5.18-2.32-5.18-2.32L175.88,318h-2.55l-6,7.62a48.24,48.24,0,0,0-1.38,25.29l1.38,6.43v41.56s-4.12,6.66-4.12,7.29c0,0.29-1.7,5.54-4.08,12.09,10.37,6.1,19.3,10.82,25.63,13.31,3,1.18,6,2.3,9,3.37,3.8-10.67,8.24-22.09,10.69-24.75,4.86-5.29,14.37-15.44,14.37-15.44s10.82-17.37,12.08-23.15c1-4.74,3.58-13.34,4.46-16.3a5.86,5.86,0,0,0,.25-2.07c-0.07-1.56-.22-4.59-0.22-7.27C235.36,342.2,237.62,338.39,237.2,336.42Z"/></clipPath><clipPath id="clip-path-3" transform="translate(-18.86 -52.01)"><path id="_Clipping_Path_3" data-name="&lt;Clipping Path&gt;" class="cls-2" d="M450,317.12a71.81,71.81,0,0,1-1,11.87c-2.9,17.3-12,29.93-22.76,29.93a14.15,14.15,0,0,1-2.86-.3c-11.75-2.49-20.87-20.12-20.87-41.5,0-23.08,10.63-31.25,23.72-31.25S450,294,450,317.12Z"/></clipPath></defs><title>coding-3</title><path class="cls-3" d="M481.72,245.83a119.56,119.56,0,0,1-3.33,28.48c-0.75,3.06-1.65,6.11-2.68,9.11-0.3.86-.6,1.72-0.92,2.57-0.26.7-.53,1.4-0.8,2.09l-0.23.57c-0.29.72-.58,1.44-0.89,2.15l-0.15.35c-0.3.7-.61,1.4-0.92,2.09l-0.42.91c-0.28.62-.57,1.23-0.87,1.84s-0.63,1.29-.95,1.93c-0.12.23-.23,0.46-0.35,0.68l-0.85,1.65-0.69,1.27q-1.59,2.94-3.33,5.8c-0.47.78-.95,1.56-1.44,2.33-0.11.19-.23,0.38-0.35,0.57q-0.84,1.32-1.71,2.64c-0.47.71-.94,1.42-1.43,2.13l-1.27,1.85-0.28.39c-0.44.64-.9,1.28-1.35,1.92-0.56.79-1.13,1.56-1.7,2.34-0.12.16-.23,0.32-0.35,0.47-0.65.89-1.32,1.77-2,2.64-0.4.52-.8,1-1.21,1.56-0.72.95-1.46,1.89-2.21,2.83s-1.43,1.79-2.16,2.68l-0.24.29c-0.72.89-1.44,1.77-2.18,2.65-0.21.27-.44,0.54-0.66,0.8-0.67.81-1.35,1.62-2,2.42q-2.94,3.48-5.93,6.9-6.08,7-12.41,13.89c-3.51,3.8-7.07,7.58-10.7,11.29-17.42,17.89-36.28,34.58-56.79,47.88-2.55,1.65-5.12,3.26-7.72,4.79l-2.85,1.67-0.49.28c-1,.56-2,1.11-2.95,1.65s-2,1.11-3,1.64l-1.38.72q-3,1.56-6,3c-1.09.52-2.18,1-3.28,1.51s-2,.91-3.05,1.35l-1.25.53c-0.93.4-1.87,0.78-2.81,1.16q-2.72,1.1-5.48,2.09l-2.12.76-1.2.41-2,.65-1.72.55-0.06,0q-1.69.53-3.39,1c-1.79.52-3.58,1-5.38,1.46-1.19.3-2.38,0.58-3.58,0.85s-2.26.5-3.4,0.74l-0.27.05c-1.18.24-2.37,0.47-3.56,0.68l-1.82.31-1.84.29c-0.55.09-1.11,0.17-1.66,0.24l-2,.28a154.51,154.51,0,0,1-21.37,1.21l-1.28,0a176.84,176.84,0,0,1-19.35-1.45l-1.41-.19-2.43-.34-1.89-.3c-2.67-.42-5.32-0.9-8-1.44-0.59-.11-1.17-0.23-1.75-0.36-1.78-.37-3.57-0.77-5.34-1.19-1.19-.28-2.37-0.57-3.55-0.87l-1.77-.46-1.77-.47c-2.35-.63-4.69-1.31-7-2q-4.06-1.23-8.08-2.61l-2.92-1c-3-1.07-6-2.2-9-3.37l-1.63-.66-1.31-.57-0.88-.4c-1.94-.88-4-1.91-6.32-3.07l-1.16-.6c-1.39-.73-2.84-1.5-4.33-2.32-3.13-1.72-6.48-3.62-10-5.69-40-23.54-101.26-67.72-115.64-84.47-0.73-.85-1.44-1.71-2.15-2.58-0.55-.68-1.1-1.37-1.63-2.07s-1-1.26-1.44-1.91-0.83-1.13-1.23-1.71-0.76-1.07-1.13-1.61l-0.08-.12c-0.45-.67-0.9-1.34-1.34-2s-0.84-1.3-1.24-2c-0.2-.31-0.39-0.63-0.58-0.95q-0.67-1.11-1.32-2.22v0c-0.46-.82-0.92-1.64-1.37-2.47-0.78-1.45-1.53-2.91-2.23-4.39l-0.54-1.15a91.47,91.47,0,0,1-3.74-9.29c-0.39-1.1-.74-2.21-1.08-3.32-0.43-1.43-.82-2.87-1.18-4.31-0.07-.29-0.14-0.57-0.2-0.86-0.18-.75-0.35-1.51-0.5-2.27-0.23-1.06-.42-2.12-0.6-3.19,0-.26-0.09-0.52-0.12-0.78-0.09-.55-0.17-1.1-0.24-1.66s-0.17-1.33-.24-2c0-.23-0.05-0.45-0.07-0.67-0.06-.57-0.1-1.14-0.15-1.7a0.61,0.61,0,0,0,0-.14c-0.05-.68-0.09-1.35-0.11-2a1.28,1.28,0,0,1,0-.19q0-1.06-.06-2.13c0-.26,0-0.53,0-0.79,0-.42,0-0.83,0-1.25,0-1,0-2.09.11-3.13,0-.68.09-1.36,0.15-2,0.12-1.34.28-2.68,0.48-4,0.1-.68.21-1.36,0.34-2q0.36-2,.87-4.05a69.72,69.72,0,0,1,3.45-10.25,72.21,72.21,0,0,1,3.59-7.34c0.1-.2.22-0.41,0.34-0.61,5.39-9.49,12.72-17.91,21-25.71,0.88-.84,1.77-1.66,2.68-2.47s1.91-1.72,2.88-2.58l0.18-.16q2.32-2,4.71-4c2.45-2.05,4.94-4.06,7.45-6.06l0.25-.2c2.15-1.7,4.32-3.39,6.48-5.07,3.4-2.63,6.81-5.25,10.15-7.86l2.64-2.07c1-.76,1.92-1.52,2.87-2.28a213.69,213.69,0,0,0,23.86-22.64q2.08-2.28,4.14-4.59c0.65-.74,1.3-1.47,1.94-2.21,9.13-10.4,17.62-20.92,27.07-30.85q3.38-3.55,6.92-7c2-1.91,4-3.79,6.14-5.63C162,105.11,164.43,103,167,101c3.55-2.76,7.29-5.41,11.29-7.94,1-.63,2-1.24,2.93-1.84,99.71-62,173.1-41.74,222.06,0Q408.85,96,414,101c2.08,2,4.09,4.09,6,6.19,0.22,0.22.42,0.45,0.63,0.69q2.06,2.19,4,4.41l1.15,1.32c0.57,0.66,1.14,1.32,1.7,2s1.37,1.63,2.05,2.45l1.27,1.56c2.73,3.36,5.33,6.77,7.81,10.2,0.5,0.68,1,1.37,1.48,2.06,3.42,4.8,6.6,9.65,9.55,14.47l1.25,2.06q0.63,1,1.23,2.07l1.19,2.05c0.4,0.69.79,1.37,1.17,2.05l1.14,2c0.39,0.68.76,1.36,1.11,2l1.09,2c0.36,0.67.71,1.35,1.06,2l1,2,1,2q2,4,3.73,7.82c0.58,1.3,1.16,2.59,1.71,3.86,2.49,5.72,4.62,11.19,6.36,16.28a0.19,0.19,0,0,1,0,.07c0.17,0.49.33,1,.49,1.45s0.33,1,.49,1.48,0.25,0.75.36,1.13c0.18,0.56.36,1.12,0.53,1.69s0.37,1.22.54,1.83c0.33,1.12.65,2.24,1,3.37,0.26,0.95.51,1.9,0.75,2.86,0,0.18.1,0.35,0.14,0.53s0.07,0.3.11,0.45c0.14,0.56.28,1.12,0.41,1.69,0.36,1.49.69,3,1,4.49,0.17,0.82.34,1.63,0.49,2.45l0.09,0.46q0.23,1.15.42,2.31c0.18,1,.35,2.07.5,3.1,0.13,0.78.24,1.57,0.35,2.36,0,0.11,0,.23.05,0.35,0.07,0.52.14,1,.2,1.58s0.11,0.88.16,1.31c0.18,1.59.34,3.17,0.47,4.76l0.09,1.08,0.12,1.81c0,0.67.08,1.34,0.11,2,0,0.52.05,1,.07,1.55,0,0.76.05,1.53,0.06,2.29S481.72,244.94,481.72,245.83Z" transform="translate(-18.86 -52.01)"/><g class="cls-4"><path class="cls-1" d="M481.72,245.83a119.56,119.56,0,0,1-3.33,28.48c-0.75,3.06-1.65,6.11-2.68,9.11-0.3.86-.6,1.72-0.92,2.57-0.26.7-.53,1.4-0.8,2.09l-0.23.57c-0.29.72-.58,1.44-0.89,2.15l-0.15.35c-0.3.7-.61,1.4-0.92,2.09l-0.42.91c-0.28.62-.57,1.23-0.87,1.84s-0.63,1.29-.95,1.93c-0.12.23-.23,0.46-0.35,0.68l-0.85,1.65-0.69,1.27q-1.59,2.94-3.33,5.8c-0.47.78-.95,1.56-1.44,2.33-0.11.19-.23,0.38-0.35,0.57q-0.84,1.32-1.71,2.64c-0.47.71-.94,1.42-1.43,2.13l-1.27,1.85-0.28.39c-0.44.64-.9,1.28-1.35,1.92-0.56.79-1.13,1.56-1.7,2.34-0.12.16-.23,0.32-0.35,0.47-0.65.89-1.32,1.77-2,2.64-0.4.52-.8,1-1.21,1.56-0.72.95-1.46,1.89-2.21,2.83s-1.43,1.79-2.16,2.68l-0.24.29c-0.72.89-1.44,1.77-2.18,2.65-0.21.27-.44,0.54-0.66,0.8-0.67.81-1.35,1.62-2,2.42q-2.94,3.48-5.93,6.9-6.08,7-12.41,13.89c-3.51,3.8-7.07,7.58-10.7,11.29-17.42,17.89-36.28,34.58-56.79,47.88-2.55,1.65-5.12,3.26-7.72,4.79l-2.85,1.67-0.49.28c-1,.56-2,1.11-2.95,1.65s-2,1.11-3,1.64l-1.38.72q-3,1.56-6,3c-1.09.52-2.18,1-3.28,1.51s-2,.91-3.05,1.35l-1.25.53c-0.93.4-1.87,0.78-2.81,1.16q-2.72,1.1-5.48,2.09l-2.12.76-1.2.41-2,.65-1.72.55-0.06,0q-1.69.53-3.39,1c-1.79.52-3.58,1-5.38,1.46-1.19.3-2.38,0.58-3.58,0.85s-2.26.5-3.4,0.74l-0.27.05c-1.18.24-2.37,0.47-3.56,0.68l-1.82.31-1.84.29c-0.55.09-1.11,0.17-1.66,0.24l-2,.28a154.51,154.51,0,0,1-21.37,1.21l-1.28,0a176.84,176.84,0,0,1-19.35-1.45l-1.41-.19-2.43-.34-1.89-.3c-2.67-.42-5.32-0.9-8-1.44-0.59-.11-1.17-0.23-1.75-0.36-1.78-.37-3.57-0.77-5.34-1.19-1.19-.28-2.37-0.57-3.55-0.87l-1.77-.46-1.77-.47c-2.35-.63-4.69-1.31-7-2q-4.06-1.23-8.08-2.61l-2.92-1c-3-1.07-6-2.2-9-3.37l-1.63-.66-1.31-.57-0.88-.4c-1.94-.88-4-1.91-6.32-3.07l-1.16-.6c-1.39-.73-2.84-1.5-4.33-2.32-3.13-1.72-6.48-3.62-10-5.69-40-23.54-101.26-67.72-115.64-84.47-0.73-.85-1.44-1.71-2.15-2.58-0.55-.68-1.1-1.37-1.63-2.07s-1-1.26-1.44-1.91-0.83-1.13-1.23-1.71-0.76-1.07-1.13-1.61l-0.08-.12c-0.45-.67-0.9-1.34-1.34-2s-0.84-1.3-1.24-2c-0.2-.31-0.39-0.63-0.58-0.95q-0.67-1.11-1.32-2.22v0c-0.46-.82-0.92-1.64-1.37-2.47-0.78-1.45-1.53-2.91-2.23-4.39l-0.54-1.15a91.47,91.47,0,0,1-3.74-9.29c-0.39-1.1-.74-2.21-1.08-3.32-0.43-1.43-.82-2.87-1.18-4.31-0.07-.29-0.14-0.57-0.2-0.86-0.18-.75-0.35-1.51-0.5-2.27-0.23-1.06-.43-2.12-0.6-3.19,0-.26-0.09-0.52-0.12-0.78-0.09-.55-0.17-1.1-0.24-1.66s-0.17-1.33-.24-2c0-.23-0.05-0.45-0.07-0.67-0.06-.57-0.1-1.14-0.15-1.7a0.61,0.61,0,0,0,0-.14c-0.05-.68-0.09-1.35-0.11-2a1.28,1.28,0,0,1,0-.19q0-1.06-.06-2.13c0-1.73,0-3.45.11-5.17,0-.68.09-1.36,0.15-2,0.12-1.34.28-2.68,0.48-4,0.1-.68.21-1.36,0.34-2q0.36-2,.87-4.05a69.72,69.72,0,0,1,3.45-10.25,72.21,72.21,0,0,1,3.59-7.34c0.1-.2.22-0.41,0.34-0.61,5.39-9.49,12.72-17.91,21-25.71l1.42-1.33,1.26-1.14c1-.87,1.91-1.72,2.88-2.58l0.18-.16q2.32-2,4.71-4c2.45-2.05,4.94-4.06,7.45-6.06l0.25-.2c2.15-1.7,4.32-3.39,6.48-5.07l3.26-2.52c2.31-1.78,4.62-3.56,6.89-5.34l2.64-2.07c1-.76,1.92-1.52,2.87-2.28a213.69,213.69,0,0,0,23.86-22.64q2.08-2.28,4.14-4.59c0.65-.74,1.3-1.47,1.94-2.21,9.13-10.4,17.62-20.92,27.07-30.85q3.38-3.55,6.92-7c2-1.91,4-3.79,6.14-5.63C162,105.11,164.43,103,167,101c3.55-2.76,7.29-5.41,11.29-7.94,1-.63,2-1.24,2.93-1.84,99.71-62,173.1-41.74,222.06,0Q408.85,96,414,101c2.08,2,4.09,4.09,6,6.19,0.22,0.22.42,0.45,0.63,0.69q2.06,2.19,4,4.41l1.15,1.32c0.57,0.66,1.14,1.32,1.7,2s1.37,1.63,2.05,2.45l1.27,1.56c2.73,3.36,5.33,6.77,7.81,10.2,0.5,0.68,1,1.37,1.48,2.06,3.42,4.8,6.6,9.65,9.55,14.47l1.25,2.06q0.63,1,1.23,2.07l1.19,2.05c0.4,0.69.79,1.37,1.17,2.05l1.14,2c0.39,0.68.76,1.36,1.11,2l1.09,2c0.36,0.67.71,1.35,1.06,2l1,2,1,2q2,4,3.73,7.82c0.58,1.3,1.16,2.59,1.71,3.86,2.49,5.72,4.62,11.19,6.36,16.28a0.19,0.19,0,0,1,0,.07c0.17,0.49.33,1,.49,1.45s0.33,1,.49,1.48,0.25,0.75.36,1.13c0.18,0.56.36,1.12,0.53,1.69s0.37,1.22.54,1.83c0.33,1.12.65,2.24,1,3.37,0.26,0.95.51,1.9,0.75,2.86,0,0.18.1,0.35,0.14,0.53s0.07,0.3.11,0.45c0.14,0.56.28,1.12,0.41,1.69,0.36,1.49.69,3,1,4.49,0.17,0.82.34,1.63,0.49,2.45l0.09,0.46q0.23,1.15.42,2.31c0.18,1,.35,2.07.5,3.1,0.13,0.78.24,1.57,0.35,2.36,0,0.11,0,.23.05,0.35,0.07,0.52.14,1,.2,1.58s0.11,0.88.16,1.31c0.18,1.59.34,3.17,0.47,4.76l0.09,1.08,0.12,1.81c0,0.67.08,1.34,0.11,2,0,0.52.05,1,.07,1.55,0,0.76.05,1.53,0.06,2.29S481.72,244.94,481.72,245.83Z" transform="translate(-18.86 -52.01)"/></g><path class="cls-5" d="M32.14,262.26c-0.2-.13-0.15-0.22,0,0h0Z" transform="translate(-18.86 -52.01)"/><path class="cls-6" d="M125.67,253.44a18.32,18.32,0,0,1-12.57,14.47l-2.48.81c-8.92,12.63-24.56,18-37.89,10.19l-3.9-2.29-10.92-13-0.13,0c-3.46.72-7.37,0.19-9.93-2.25a3.4,3.4,0,1,1-5.51-3.25c-2.2,1.94-5.6,1.05-7.72-1.07a66.7,66.7,0,0,1,2-17.29A69.72,69.72,0,0,1,40,229.56a72.21,72.21,0,0,1,3.59-7.34c0.1-.2.22-0.41,0.34-0.61a87.87,87.87,0,0,1,6.65-10l1.26-1.14c1-.87,1.91-1.72,2.88-2.58l0.18-.16q2.32-2,4.71-4c2.45-2.05,4.94-4.06,7.45-6.06l0.25-.2c2.15-1.7,4.32-3.39,6.48-5.07l3.26-2.52a8.94,8.94,0,0,1,1.92.45c2.67,0.93,3.13,3.38,5,5.06,2.46,2.25,4.82-1.53,8.61-1.41,11.65,0.36,7.13,12.31,12.82,10.81,24.57-6.48,20.44,24.95,9.76,31.85C121.46,241.81,126.89,245.26,125.67,253.44Z" transform="translate(-18.86 -52.01)"/><ellipse class="cls-2" cx="53.98" cy="190.38" rx="41.44" ry="40.93"/><ellipse class="cls-7" cx="53.98" cy="188.73" rx="37.78" ry="37.32"/><path class="cls-3" d="M32.24,255.44c-2.38,1.48-3.06,6.45-1.18,8.61s5.46,0.49,6.19-2.87a1.12,1.12,0,0,0,2,.28,2.3,2.3,0,0,0,.14-2.1c-0.18-.15-0.11-0.26,0,0,1.22,1,3.32-.09,3.61-2.15-0.89,5.5,4.11,10.3,7.79,7.5-1.09,2.34.34,5.41,2.24,6s3.94-.53,5.76-1.78,3.68-2.67,5.67-2.76c1.74-.08,3.34.9,5,1.48,5.26,1.83,11.42-.59,15.44-6.11,2.66,4.55,9.21,2.88,11-2.79,0.37,2.65,2.18,4.67,4.21,4.7s4.07-1.94,4.76-4.58v0c0,2.51,2.28,3.74,3.88,2.12a9.36,9.36,0,0,0,2.31-8.87c2.73-.11,5.36-3.27,5.78-6.93s-1.43-7.33-4.06-8.05c4.51-1.87,8-8,8.22-14.29s-3.06-12.09-7.49-13.55a4.72,4.72,0,0,0-5.09,1.06c-0.53-3.57-2.15-6.76-4.53-8.36-3.8-2.57-9.09-.81-11.92,4a9.4,9.4,0,0,0,.22-8.38c-1.26-2.33-3.75-3.27-5.87-2.16-0.46-3.83-3.41-6.55-6.3-5.81s-5.22,4.84-5,8.71c-0.27-3.12-4-3.89-5.28-1.27,0.11,0.24-.06.1,0,0-1.84-3.86-5.58-5.84-9-4.71-3.69,1.21-6.79,5.85-7.26,10.9a6.53,6.53,0,0,0-9,.25c-2.73,2.46-4.31,7.14-3.83,11.33-2.87-2.83-7.7-1.29-9.67,3.09s-0.61,10.59,2.71,12.42c-2.29.35-4.31,3.39-4.31,6.47s2,5.72,4.33,5.64c-2.32.2-4.5,2.94-4.84,6.05S30,254.76,32.24,255.44Z" transform="translate(-18.86 -52.01)"/><g class="cls-6"><path class="cls-3" d="M70.33,241.1a4.3,4.3,0,0,0-4-1,4.8,4.8,0,0,0-3,3.72c-0.32,1.81.51,3.81,1.9,4.15,1.69,0.42,3.42-1.47,5.14-1.26a12.27,12.27,0,0,1,1.77.58c2.47,0.69,5-1.52,7.06-3.61a9.69,9.69,0,0,0,2-2.49,4.06,4.06,0,0,0,.27-3.29c-0.61-1.35-2.11-1.46-3.36-1.2a13.44,13.44,0,0,0-7,4.1l0.22-1.52Z" transform="translate(-18.86 -52.01)"/><path class="cls-3" d="M106.45,236.17a5.57,5.57,0,0,0-2.14-1.32,2.06,2.06,0,0,0-2.26.94,3.29,3.29,0,0,0,.56,3.76,5.24,5.24,0,0,0,3.14,1.17c1.14,0.16,2.58.12,3.17-1.2a2.88,2.88,0,0,0-.48-2.88,4.85,4.85,0,0,0-2.22-1.28Z" transform="translate(-18.86 -52.01)"/><path class="cls-3" d="M49.91,215.74a10.93,10.93,0,0,0-4.74,7.32c-0.18.95-.18,2.12,0.46,2.58a1.67,1.67,0,0,0,1.56,0l6.64-2.4a10,10,0,0,0-3,2.2,5,5,0,0,0-1.2,3.92,2.88,2.88,0,0,0,3,2.44,6.48,6.48,0,0,0,3.67-2.07,6.75,6.75,0,0,0,2.37-4.45c0.06-1.81-1.7-3.37-2.8-2.15A24.6,24.6,0,0,0,63,218.52a8.54,8.54,0,0,0,2.1-2.57,4.4,4.4,0,0,0,.27-3.45c-2.16-5.09-5.15,2.75-6.56,3.52C56.18,217.48,53.28,213.76,49.91,215.74Z" transform="translate(-18.86 -52.01)"/><path class="cls-3" d="M39.23,238.69a3.18,3.18,0,0,0,.53,2.88,1.31,1.31,0,0,0,2.12-.68,8.06,8.06,0,0,0-4,3.09c-0.95,1.64-.77,4.39.69,4.91,0.91,0.33,1.9-.31,2.75-0.95a57,57,0,0,0,6.93-6.15,3.17,3.17,0,0,0,2.49,4.14c1.64,0.08,3.19-1.15,4.62-2.32,1.75-1.44,3.77-3.61,3.36-6.09a3,3,0,0,0-4.23-2.25c-1.7.74-3,2.56-4.21,4.29,1-1.78-.31-4.25-1.93-4.43s-3.17,1.15-4.17,2.68c1.86-1.4,2.33-4.77-.12-5C42.44,232.65,39.65,237,39.23,238.69Z" transform="translate(-18.86 -52.01)"/><path class="cls-3" d="M89.77,228.09c-1.37-.58-3.13.68-3.54,2.53s0.63,3.87,2.09,4.07a4.4,4.4,0,0,0-2.83,2,3.47,3.47,0,0,0-.63,2.14,2,2,0,0,0,1.94,1.8,5.33,5.33,0,0,0,2.59-1.08,4.37,4.37,0,0,0-2.55,1.09,2.55,2.55,0,0,0-.43,3,1.75,1.75,0,0,0,2.11.17,11.39,11.39,0,0,0,4.38-3.37,3.51,3.51,0,0,0,3.59,1.72,3.47,3.47,0,0,0,2.14-3.9,2.51,2.51,0,0,0-2.2-1.94,5.75,5.75,0,0,0-2.88.75,7.38,7.38,0,0,0,2.36-3.38c0.37-1.44-.34-3.29-1.51-3.11s-2,2.52-3.06,3.4C90.09,232.55,92.53,229.24,89.77,228.09Z" transform="translate(-18.86 -52.01)"/><path class="cls-3" d="M66.36,222.6c-1.51,1.37-2.07,3.93-2,6.21,0.07,2.51.92,5.15,2.71,6.05,2.36,1.18,5.39-1.53,5.89-4.83a8.09,8.09,0,0,0-3.41-7.92A2.86,2.86,0,0,0,66.36,222.6Z" transform="translate(-18.86 -52.01)"/><path class="cls-3" d="M83.08,218.86l0.6,0.64a2.63,2.63,0,0,0-4.34-.17,4.77,4.77,0,0,0-.12,5.57,2.71,2.71,0,0,0,4.36-.67,4,4,0,0,0,5.23-1.56c1.25-1.94,1-5.17-.6-6.27s-4.18.85-4,3.25l-0.7-1Z" transform="translate(-18.86 -52.01)"/><path class="cls-3" d="M101.41,221.52a13.76,13.76,0,0,0-2.93,5.27c-0.47,2.06.2,4.61,1.79,5s3.13-1.35,4.07-3.15a8.06,8.06,0,0,0,1.07-5.4c-0.44-1.77-2.45-2.71-3.49-1.26Z" transform="translate(-18.86 -52.01)"/><path class="cls-3" d="M75.12,210.83a2.31,2.31,0,0,0-3.73-1.09,5.11,5.11,0,0,0-1.25,5,3.94,3.94,0,0,0,3.35,2.91,3.69,3.69,0,0,0,3.61-4.09,3.21,3.21,0,0,0,3.43,1.46,8.86,8.86,0,0,0,3.63-1.94c1.54-1.21,3.19-3,3.07-5.24a3.19,3.19,0,0,0-2.8-3.13,5.14,5.14,0,0,0-3.85,2c-0.85,1-1.56,2.12-2.48,3s-2.15,1.35-3.1.75Z" transform="translate(-18.86 -52.01)"/></g><rect class="cls-8" x="126.82" y="220.76" width="230.67" height="97.15"/><rect class="cls-2" x="131.64" y="226.63" width="21.7" height="12.01"/><rect class="cls-2" x="317.97" y="285.2" width="34.18" height="12.01"/><rect class="cls-2" x="331.05" y="241.64" width="21.1" height="12.01"/><rect class="cls-2" x="131.64" y="270.38" width="21.7" height="12.01"/><rect class="cls-2" x="131.64" y="255.92" width="17.57" height="12.01"/><rect class="cls-2" x="131.64" y="241.27" width="12.01" height="12.01"/><rect class="cls-2" x="146.98" y="241.27" width="12.01" height="12.01"/><rect class="cls-2" x="162.31" y="241.27" width="12.01" height="12.01"/><rect class="cls-2" x="177.64" y="241.27" width="12.01" height="12.01"/><rect class="cls-2" x="192.98" y="241.27" width="12.01" height="12.01"/><rect class="cls-2" x="208.31" y="241.27" width="12.01" height="12.01"/><rect class="cls-2" x="223.64" y="241.27" width="12.01" height="12.01"/><rect class="cls-2" x="238.98" y="241.27" width="12.01" height="12.01"/><rect class="cls-2" x="254.31" y="241.27" width="12.01" height="12.01"/><rect class="cls-2" x="269.64" y="241.27" width="12.01" height="12.01"/><rect class="cls-2" x="284.98" y="241.27" width="12.01" height="12.01"/><rect class="cls-2" x="300.31" y="241.27" width="12.01" height="12.01"/><rect class="cls-2" x="315.65" y="241.27" width="12.01" height="12.01"/><rect class="cls-2" x="131.64" y="300.01" width="12.01" height="12.01"/><rect class="cls-2" x="146.98" y="300.01" width="12.01" height="12.01"/><rect class="cls-2" x="162.31" y="300.01" width="12.01" height="12.01"/><rect class="cls-2" x="177.64" y="300.01" width="14.66" height="12.01"/><rect class="cls-2" x="195.62" y="300.01" width="73.35" height="12.01"/><rect class="cls-2" x="293.63" y="300.01" width="12.01" height="12.01"/><rect class="cls-2" x="308.96" y="300.01" width="12.01" height="12.01"/><rect class="cls-2" x="324.32" y="300.01" width="12.01" height="12.01"/><rect class="cls-2" x="271.97" y="300.01" width="18.65" height="12.01"/><rect class="cls-2" x="340.14" y="300.01" width="12.01" height="12.01"/><rect class="cls-2" x="152.62" y="255.92" width="12.01" height="12.01"/><rect class="cls-2" x="167.95" y="255.92" width="12.01" height="12.01"/><rect class="cls-2" x="183.29" y="255.92" width="12.01" height="12.01"/><rect class="cls-2" x="198.62" y="255.92" width="12.01" height="12.01"/><rect class="cls-2" x="213.95" y="255.92" width="12.01" height="12.01"/><rect class="cls-2" x="229.29" y="255.92" width="12.01" height="12.01"/><rect class="cls-2" x="244.62" y="255.92" width="12.01" height="12.01"/><rect class="cls-2" x="259.96" y="255.92" width="12.01" height="12.01"/><rect class="cls-2" x="275.29" y="255.92" width="12.01" height="12.01"/><rect class="cls-2" x="290.62" y="255.92" width="12.01" height="12.01"/><rect class="cls-2" x="305.96" y="255.92" width="12.01" height="12.01"/><rect class="cls-2" x="321.29" y="255.92" width="12.01" height="12.01"/><polygon class="cls-2" points="352.15 255.92 352.15 282.57 340.14 282.57 340.14 267.93 336.62 267.93 336.62 255.92 352.15 255.92"/><rect class="cls-2" x="156.14" y="270.56" width="12.01" height="12.01"/><rect class="cls-2" x="171.47" y="270.56" width="12.01" height="12.01"/><rect class="cls-2" x="186.8" y="270.56" width="12.01" height="12.01"/><rect class="cls-2" x="202.14" y="270.56" width="12.01" height="12.01"/><rect class="cls-2" x="217.47" y="270.56" width="12.01" height="12.01"/><rect class="cls-2" x="232.81" y="270.56" width="12.01" height="12.01"/><rect class="cls-2" x="248.14" y="270.56" width="12.01" height="12.01"/><rect class="cls-2" x="263.47" y="270.56" width="12.01" height="12.01"/><rect class="cls-2" x="278.81" y="270.56" width="12.01" height="12.01"/><rect class="cls-2" x="294.14" y="270.56" width="12.01" height="12.01"/><rect class="cls-2" x="309.47" y="270.56" width="12.01" height="12.01"/><rect class="cls-2" x="324.81" y="270.56" width="12.01" height="12.01"/><rect class="cls-2" x="149.62" y="285.2" width="12.01" height="12.01"/><rect class="cls-2" x="164.95" y="285.2" width="12.01" height="12.01"/><rect class="cls-2" x="180.29" y="285.2" width="12.01" height="12.01"/><rect class="cls-2" x="195.62" y="285.2" width="12.01" height="12.01"/><rect class="cls-2" x="210.95" y="285.2" width="12.01" height="12.01"/><rect class="cls-2" x="226.29" y="285.2" width="12.01" height="12.01"/><rect class="cls-2" x="241.62" y="285.2" width="12.01" height="12.01"/><rect class="cls-2" x="256.96" y="285.2" width="12.01" height="12.01"/><rect class="cls-2" x="272.29" y="285.2" width="12.01" height="12.01"/><rect class="cls-2" x="287.62" y="285.2" width="12.01" height="12.01"/><rect class="cls-2" x="302.96" y="285.2" width="12.01" height="12.01"/><rect class="cls-2" x="156.14" y="227.36" width="12.01" height="12.01"/><rect class="cls-2" x="171.47" y="227.36" width="12.01" height="12.01"/><rect class="cls-2" x="186.8" y="227.36" width="12.01" height="12.01"/><rect class="cls-2" x="202.14" y="227.36" width="12.01" height="12.01"/><rect class="cls-2" x="217.47" y="227.36" width="12.01" height="12.01"/><rect class="cls-2" x="232.81" y="227.36" width="12.01" height="12.01"/><rect class="cls-2" x="248.14" y="227.36" width="12.01" height="12.01"/><rect class="cls-2" x="263.47" y="227.36" width="12.01" height="12.01"/><rect class="cls-2" x="278.81" y="227.36" width="12.01" height="12.01"/><rect class="cls-2" x="294.14" y="227.36" width="12.01" height="12.01"/><rect class="cls-2" x="309.47" y="227.36" width="12.01" height="12.01"/><rect class="cls-2" x="324.81" y="227.36" width="12.01" height="12.01"/><rect class="cls-2" x="340.14" y="227.36" width="12.01" height="12.01"/><rect class="cls-2" x="131.64" y="285.2" width="14.55" height="12.01"/><polygon class="cls-9" points="126.82 221.38 131.64 219.77 354.36 219.77 357.53 221.36 126.82 221.38"/><path class="cls-6" d="M310.33,440l-4.69-28.25a23.07,23.07,0,0,0-6.35-11.06c-9.33-9-21.66-18.24-22.19-30-0.81-18-3.62-17.49-3.32-21.94a54.06,54.06,0,0,0,3.21-6.6,38.47,38.47,0,0,0,1.36-5.34,3.64,3.64,0,0,1,4-2.85,6.19,6.19,0,0,1,3.39,1.59,9.39,9.39,0,0,1,2.54,6.5,27.79,27.79,0,0,1-1,7.06,46.16,46.16,0,0,1,3,12.41c1.07-3.3,1.88-6.63,2.95-9.92,0.22-.12.14-0.38,0.35-0.5-1.51-3.24-.23-3.06-3.22-10.19-5-12-10.64-23.57-14.65-38.65a8.57,8.57,0,0,1,.09-4.24c1.45-4.31,5.89-3.32,7.83-.81a8.28,8.28,0,0,1,1.2,2.18,116.46,116.46,0,0,0,9.57,18.45l10.89,16.6s3.79-3.11,4.37-4.5h0c0.57-1.4.85-12.67,0.85-12.67s-0.86,2.11-2.77,2c-1.38-.1-4.18.7-6.17-1.54a5.21,5.21,0,0,1-.18-6.54l4.93-6.66a7.48,7.48,0,0,1,7.74-.93,36.82,36.82,0,0,1,8.71,6.1,17.81,17.81,0,0,1,7.58,1.46c3.49,1.68,7.15,6.5,7.15,6.5s4.07,0.25,5.9,1.58c0.46,0.33,6.67,10,4.43,17.53-1.33,4.49-2.15,11-2.75,12.76l-3.05,44.09,6.15,29-13.15,7.33A94.21,94.21,0,0,1,320,436.68Z" transform="translate(-18.86 -52.01)"/><path id="_Clipping_Path_4" data-name="&lt;Clipping Path&gt;" class="cls-1" d="M347.67,388.48l0.12-44.2c0.48-1.79.87-8.35,1.89-12.92,1.73-7.66-5.1-16.9-5.59-17.2-1.92-1.2-6-1.18-6-1.18s-4-4.57-7.57-6a17.83,17.83,0,0,0-7.66-1,36.59,36.59,0,0,0-9.1-5.51,7.48,7.48,0,0,0-7.66,1.44l-4.47,7a5.21,5.21,0,0,0,.61,6.52c2.14,2.11,4.88,1.12,6.26,1.12,1.92,0,2.63-2.16,2.63-2.16s0.47,11.26,0,12.69h0c-0.49,1.43-4.07,4.78-4.07,4.78l-12-15.84a115.63,115.63,0,0,1-10.78-17.77,8.17,8.17,0,0,0-1.35-2.1c-2.1-2.38-6.59-3.07-7.76,1.33a8.62,8.62,0,0,0,.19,4.24c5,14.78,11.37,25.95,17.18,37.59,3.46,6.91,2.17,6.83,3.89,10-0.2.14-.11,0.4-0.32,0.52-0.85,3.36-1.43,6.73-2.28,10.09a46.24,46.24,0,0,0-3.83-12.18,27.46,27.46,0,0,0,.52-7.12,9.35,9.35,0,0,0-3-6.31,6.15,6.15,0,0,0-3.49-1.36A3.64,3.64,0,0,0,280.3,336a36.67,36.67,0,0,1-1,5.41,54,54,0,0,1-2.76,6.79c0,4.46,2.76,3.73,4.77,21.68,1.56,14,19.56,23.21,29.36,33.3l10.44,32.85A202.51,202.51,0,0,0,356,417.79Z" transform="translate(-18.86 -52.01)"/><g class="cls-10"><path class="cls-3" d="M342.55,328.41a7.69,7.69,0,0,1,2.3-3.47,2.92,2.92,0,0,1,3.83.14q-1.12-3.44-2.38-6.83a10.46,10.46,0,0,0-2.78-4.68c-1.42-1.16-3.76-1.41-5,0a53.94,53.94,0,0,1,.28,15.8c-0.37,2.84-.85,6.1,1.07,8.24a0.77,0.77,0,0,0,1.11-.93,1.13,1.13,0,0,0-1-.27A50.5,50.5,0,0,1,342.55,328.41Z" transform="translate(-18.86 -52.01)"/><path class="cls-3" d="M342.55,328.41a7.69,7.69,0,0,1,2.3-3.47,2.92,2.92,0,0,1,3.83.14q-1.12-3.44-2.38-6.83a10.46,10.46,0,0,0-2.78-4.68c-1.42-1.16-3.76-1.41-5,0a53.94,53.94,0,0,1,.28,15.8c-0.37,2.84-.85,6.1,1.07,8.24a0.77,0.77,0,0,0,1.11-.93,1.13,1.13,0,0,0-1-.27A50.5,50.5,0,0,1,342.55,328.41Z" transform="translate(-18.86 -52.01)"/><path class="cls-11" d="M342.55,328.41a7.69,7.69,0,0,1,2.3-3.47,2.92,2.92,0,0,1,3.83.14q-1.12-3.44-2.38-6.83a10.46,10.46,0,0,0-2.78-4.68c-1.42-1.16-3.76-1.41-5,0a53.94,53.94,0,0,1,.28,15.8c-0.37,2.84-.85,6.1,1.07,8.24a0.77,0.77,0,0,0,1.11-.93,1.13,1.13,0,0,0-1-.27A50.5,50.5,0,0,1,342.55,328.41Z" transform="translate(-18.86 -52.01)"/><path class="cls-3" d="M326.59,323.67a27.59,27.59,0,0,0,.54,5.74,7.18,7.18,0,0,0,3.2,4.62c-1-3.73-.46-7.67.09-11.49l1-7a5.29,5.29,0,0,1,.71-2.31,1.81,1.81,0,0,1,2.11-.77c-1,.59-2.27-0.2-2.87-1.18a30,30,0,0,0-1.54-3.07c-1.34-1.72-4.2-2.1-6.17-1.64C324.24,312.31,326.36,317.77,326.59,323.67Z" transform="translate(-18.86 -52.01)"/><path class="cls-3" d="M326.59,323.67a27.59,27.59,0,0,0,.54,5.74,7.18,7.18,0,0,0,3.2,4.62c-1-3.73-.46-7.67.09-11.49l1-7a5.29,5.29,0,0,1,.71-2.31,1.81,1.81,0,0,1,2.11-.77c-1,.59-2.27-0.2-2.87-1.18a30,30,0,0,0-1.54-3.07c-1.34-1.72-4.2-2.1-6.17-1.64C324.24,312.31,326.36,317.77,326.59,323.67Z" transform="translate(-18.86 -52.01)"/><path class="cls-3" d="M310.27,308.25a3.52,3.52,0,0,1-1.05-2.1,3,3,0,0,0-1.17-2c-3.07,1.95-1.39,7.66-4.5,9.55a4.07,4.07,0,0,0-1.7,1.19,1.57,1.57,0,0,0,.33,1.76,3,3,0,0,0,1.7.81,6.87,6.87,0,0,0,6.55-2.85c1.22-1.67,2.06-4.38,1.46-6.37A1.54,1.54,0,0,1,310.27,308.25Z" transform="translate(-18.86 -52.01)"/><path class="cls-3" d="M278.34,345.64a0.6,0.6,0,0,0,.08.62c0.26,0.22.61-.12,0.81-0.4a5.37,5.37,0,0,1,6-1.93c0.81,0,1.08-1.25.55-1.86a2.89,2.89,0,0,0-2.24-.72,4.41,4.41,0,0,1-2.36-.39,2.36,2.36,0,0,1-1-2.52C279.63,340.85,279,343.24,278.34,345.64Z" transform="translate(-18.86 -52.01)"/><g class="cls-12"><path class="cls-3" d="M310.27,308.25a3.52,3.52,0,0,1-1.05-2.1,3,3,0,0,0-1.17-2c-3.07,1.95-1.39,7.66-4.5,9.55a4.07,4.07,0,0,0-1.7,1.19,1.57,1.57,0,0,0,.33,1.76,3,3,0,0,0,1.7.81,6.87,6.87,0,0,0,6.55-2.85c1.22-1.67,2.06-4.38,1.46-6.37A1.54,1.54,0,0,1,310.27,308.25Z" transform="translate(-18.86 -52.01)"/><path class="cls-3" d="M278.34,345.64a0.6,0.6,0,0,0,.08.62c0.26,0.22.61-.12,0.81-0.4a5.37,5.37,0,0,1,6-1.93c0.81,0,1.08-1.25.55-1.86a2.89,2.89,0,0,0-2.24-.72,4.41,4.41,0,0,1-2.36-.39,2.36,2.36,0,0,1-1-2.52C279.63,340.85,279,343.24,278.34,345.64Z" transform="translate(-18.86 -52.01)"/></g><path class="cls-3" d="M319.06,307.49c-1.75-.23-3.6-0.28-5.12-1.17-1.91-1.12-3.21-3.51-5.42-3.6-2-.09-3.42,1.71-4.54,3.33a6.06,6.06,0,0,1,3.94-5.63,9.77,9.77,0,0,1,7.15.28,26.66,26.66,0,0,1,6.21,3.86,8.43,8.43,0,0,1,2.1,2C325.83,310.5,320.6,307.7,319.06,307.49Z" transform="translate(-18.86 -52.01)"/><path class="cls-11" d="M319.06,307.49c-1.75-.23-3.6-0.28-5.12-1.17-1.91-1.12-3.21-3.51-5.42-3.6-2-.09-3.42,1.71-4.54,3.33a6.06,6.06,0,0,1,3.94-5.63,9.77,9.77,0,0,1,7.15.28,26.66,26.66,0,0,1,6.21,3.86,8.43,8.43,0,0,1,2.1,2C325.83,310.5,320.6,307.7,319.06,307.49Z" transform="translate(-18.86 -52.01)"/><path class="cls-3" d="M287.78,364.29c0.12-.22.23-0.44,0.33-0.67A0.76,0.76,0,0,0,287.78,364.29Z" transform="translate(-18.86 -52.01)"/><path class="cls-3" d="M290.75,348.79c-0.2-2.46.15-4.94,0.05-7.41s-0.75-5.07-2.55-6.77c-2.58-2.43-9.65-1.19-7.28,3.43a3,3,0,0,0,3.67,1.37,2.67,2.67,0,0,0,1.25-3.61,12.81,12.81,0,0,1-.61,14.57,11.64,11.64,0,0,1,2.82,13.25,1.45,1.45,0,0,1,1.64,0,5.07,5.07,0,0,1,1.28,2.26,2.19,2.19,0,0,0,1.88,1.59c1.2-2.94.8-6.3,0-9.38S291,352,290.75,348.79Z" transform="translate(-18.86 -52.01)"/><path class="cls-3" d="M316.62,302.42a9.92,9.92,0,0,0-4.73-2Z" transform="translate(-18.86 -52.01)"/><path class="cls-3" d="M328.38,333.71c-0.38-1.7-1.16-3.28-1.63-5-1.09-3.91-.41-8.09-0.91-12.12a20.9,20.9,0,0,0-7.43-13.46l-1.79-.76a10.08,10.08,0,0,1,3.6,5.24c1.38,4.77,1.82,9.76,2.43,14.7A198.34,198.34,0,0,0,326.81,345C328,341.32,329.21,337.46,328.38,333.71Z" transform="translate(-18.86 -52.01)"/><path class="cls-3" d="M309.34,315.93a6.25,6.25,0,0,0,2.11-4.11,16.77,16.77,0,0,0-.11-4.22,1.37,1.37,0,0,1-1.57.95,3.52,3.52,0,0,1-1.89-1.72l-0.37,1.26-0.15-.68-0.47.6c0.71,2,1.39,4.34.3,6.16a7.3,7.3,0,0,1-2.25,2.08A3.81,3.81,0,0,0,309.34,315.93Z" transform="translate(-18.86 -52.01)"/><path class="cls-3" d="M311.28,307.1l0.06,0.5A0.76,0.76,0,0,0,311.28,307.1Z" transform="translate(-18.86 -52.01)"/><path class="cls-3" d="M306.05,327.34c-3.51-6.89-7-13.78-10.87-20.48a66.05,66.05,0,0,0-7.65-11.16c-1.33-1.5-5.16-5-7.27-2.68-1.41,1.52.44,4.29-1.29,5.93,0.4,0,2.35-.19,2.56.07a30.44,30.44,0,0,1,6.71,19.39c1.41-1.11,3.34.43,4.45,1.85a326.85,326.85,0,0,1,19,27.1c-1.14-4.13-1.16-8.51-2.39-12.62A44.79,44.79,0,0,0,306.05,327.34Z" transform="translate(-18.86 -52.01)"/><path class="cls-3" d="M346.79,344.13a43.57,43.57,0,0,0,3.13-13.84,22.71,22.71,0,0,0-3.14-12.52c-0.58-.94-3-4.77-4.3-4.46-2.35.56,0.74,4.64,1.27,5.66,2,3.85,4.11,7.92,4,12.27-0.1,3.35-1.51,6.5-2.64,9.66a20.43,20.43,0,0,0-1.41,6.86c-0.17.26-.33,0.52-0.52,0.77a10.29,10.29,0,0,1-6.28,4.14l2.9-8.95c0.34-1.06.47-2.52-.15-3.26a2.7,2.7,0,0,0,.31-1.3,6.28,6.28,0,0,0-.85-2.3c-1.34-2.88-.88-6.23-0.56-9.39,0.4-3.9.55-7.91-.59-11.66s-3.79-7.23-7.51-8.47l1,1-1.26-.92,2.34,4.88-0.86,1.23c1.29-.68,2.94.3,3.53,1.64a8.61,8.61,0,0,1,.29,4.31,86.16,86.16,0,0,0,1.18,24.26,11.9,11.9,0,0,1-1.44,5.34,5.29,5.29,0,0,1-5,2.71,5.26,5.26,0,0,0-1.93-5.33c-2,2.8-.83,7.15-0.52,10.34a113.19,113.19,0,0,0,2.32,14.36,46.35,46.35,0,0,1,2.55-12L335.87,371a7,7,0,0,1,.62-3.23,2.41,2.41,0,0,1,2.76-1.28,3.39,3.39,0,0,1,1.65,2.06,36.8,36.8,0,0,1,2,21.63c1.34,0.75,3.12-.16,3.86-1.5a8.86,8.86,0,0,0,.71-4.5Z" transform="translate(-18.86 -52.01)"/><path class="cls-3" d="M312.89,348.36c-0.64,1.12,2,5.58,2.41,6.64l6.61,16.14a76.26,76.26,0,0,0-5.13-20.67C316.34,349.36,314.16,346.13,312.89,348.36Z" transform="translate(-18.86 -52.01)"/><path class="cls-3" d="M316.31,319.84c-0.38.57-.91,1.27-1.56,1.07a1.53,1.53,0,0,1-.7-1.62l0.18-11.23c-3,2.17-2.63,5-2.85,8.24-0.12,1.87.42,10.8-.86,11.89a33.44,33.44,0,0,0,7.44-9.06C317.44,318.69,316.68,319.27,316.31,319.84Z" transform="translate(-18.86 -52.01)"/><g class="cls-12"><path class="cls-3" d="M287.78,364.29c0.12-.22.23-0.44,0.33-0.67A0.76,0.76,0,0,0,287.78,364.29Z" transform="translate(-18.86 -52.01)"/><path class="cls-3" d="M290.75,348.79c-0.2-2.46.15-4.94,0.05-7.41s-0.75-5.07-2.55-6.77c-2.58-2.43-9.65-1.19-7.28,3.43a3,3,0,0,0,3.67,1.37,2.67,2.67,0,0,0,1.25-3.61,12.81,12.81,0,0,1-.61,14.57,11.64,11.64,0,0,1,2.82,13.25,1.45,1.45,0,0,1,1.64,0,5.07,5.07,0,0,1,1.28,2.26,2.19,2.19,0,0,0,1.88,1.59c1.2-2.94.8-6.3,0-9.38S291,352,290.75,348.79Z" transform="translate(-18.86 -52.01)"/><path class="cls-3" d="M316.62,302.42a9.92,9.92,0,0,0-4.73-2Z" transform="translate(-18.86 -52.01)"/><path class="cls-3" d="M328.38,333.71c-0.38-1.7-1.16-3.28-1.63-5-1.09-3.91-.41-8.09-0.91-12.12a20.9,20.9,0,0,0-7.43-13.46l-1.79-.76a10.08,10.08,0,0,1,3.6,5.24c1.38,4.77,1.82,9.76,2.43,14.7A198.34,198.34,0,0,0,326.81,345C328,341.32,329.21,337.46,328.38,333.71Z" transform="translate(-18.86 -52.01)"/><path class="cls-3" d="M309.34,315.93a6.25,6.25,0,0,0,2.11-4.11,16.77,16.77,0,0,0-.11-4.22,1.37,1.37,0,0,1-1.57.95,3.52,3.52,0,0,1-1.89-1.72l-0.37,1.26-0.15-.68-0.47.6c0.71,2,1.39,4.34.3,6.16a7.3,7.3,0,0,1-2.25,2.08A3.81,3.81,0,0,0,309.34,315.93Z" transform="translate(-18.86 -52.01)"/><path class="cls-3" d="M311.28,307.1l0.06,0.5A0.76,0.76,0,0,0,311.28,307.1Z" transform="translate(-18.86 -52.01)"/><path class="cls-3" d="M306.05,327.34c-3.51-6.89-7-13.78-10.87-20.48a66.05,66.05,0,0,0-7.65-11.16c-1.33-1.5-5.16-5-7.27-2.68-1.41,1.52.44,4.29-1.29,5.93,0.4,0,2.35-.19,2.56.07a30.44,30.44,0,0,1,6.71,19.39c1.41-1.11,3.34.43,4.45,1.85a326.85,326.85,0,0,1,19,27.1c-1.14-4.13-1.16-8.51-2.39-12.62A44.79,44.79,0,0,0,306.05,327.34Z" transform="translate(-18.86 -52.01)"/><path class="cls-3" d="M346.79,344.13a43.57,43.57,0,0,0,3.13-13.84,22.71,22.71,0,0,0-3.14-12.52c-0.58-.94-3-4.77-4.3-4.46-2.35.56,0.74,4.64,1.27,5.66,2,3.85,4.11,7.92,4,12.27-0.1,3.35-1.51,6.5-2.64,9.66a20.43,20.43,0,0,0-1.41,6.86c-0.17.26-.33,0.52-0.52,0.77a10.29,10.29,0,0,1-6.28,4.14l2.9-8.95c0.34-1.06.47-2.52-.15-3.26a2.7,2.7,0,0,0,.31-1.3,6.28,6.28,0,0,0-.85-2.3c-1.34-2.88-.88-6.23-0.56-9.39,0.4-3.9.55-7.91-.59-11.66s-3.79-7.23-7.51-8.47l1,1-1.26-.92,2.34,4.88-0.86,1.23c1.29-.68,2.94.3,3.53,1.64a8.61,8.61,0,0,1,.29,4.31,86.16,86.16,0,0,0,1.18,24.26,11.9,11.9,0,0,1-1.44,5.34,5.29,5.29,0,0,1-5,2.71,5.26,5.26,0,0,0-1.93-5.33c-2,2.8-.83,7.15-0.52,10.34a113.19,113.19,0,0,0,2.32,14.36,46.35,46.35,0,0,1,2.55-12L335.87,371a7,7,0,0,1,.62-3.23,2.41,2.41,0,0,1,2.76-1.28,3.39,3.39,0,0,1,1.65,2.06,36.8,36.8,0,0,1,2,21.63c1.34,0.75,3.12-.16,3.86-1.5a8.86,8.86,0,0,0,.71-4.5Z" transform="translate(-18.86 -52.01)"/><path class="cls-3" d="M312.89,348.36c-0.64,1.12,2,5.58,2.41,6.64l6.61,16.14a76.26,76.26,0,0,0-5.13-20.67C316.34,349.36,314.16,346.13,312.89,348.36Z" transform="translate(-18.86 -52.01)"/><path class="cls-3" d="M316.31,319.84c-0.38.57-.91,1.27-1.56,1.07a1.53,1.53,0,0,1-.7-1.62l0.18-11.23c-3,2.17-2.63,5-2.85,8.24-0.12,1.87.42,10.8-.86,11.89a33.44,33.44,0,0,0,7.44-9.06C317.44,318.69,316.68,319.27,316.31,319.84Z" transform="translate(-18.86 -52.01)"/></g></g><path class="cls-13" d="M324,307.59a78.63,78.63,0,0,1,2.73,20,10.64,10.64,0,0,0,.36,3.36,3.31,3.31,0,0,0,2.29,2.29" transform="translate(-18.86 -52.01)"/><path class="cls-13" d="M338.11,314.16c3,6.26-.07,20.24.15,21.23a3.52,3.52,0,0,0,1.69,2.4" transform="translate(-18.86 -52.01)"/><path class="cls-13" d="M312.33,306.74c-0.35,2-.64,4.3-1,6.29a11.61,11.61,0,0,1-4-8" transform="translate(-18.86 -52.01)"/><path class="cls-13" d="M293.17,360.09L291,361" transform="translate(-18.86 -52.01)"/><path class="cls-13" d="M293.72,361.82a12.53,12.53,0,0,0,0,5.06" transform="translate(-18.86 -52.01)"/><path class="cls-13" d="M306.36,343.14l2.39,4.31" transform="translate(-18.86 -52.01)"/><path class="cls-13" d="M311,327.36l2.38-3.36" transform="translate(-18.86 -52.01)"/><path class="cls-13" d="M344.43,343.14l-0.72,2.63" transform="translate(-18.86 -52.01)"/><path class="cls-13" d="M338.61,335.93l2.11-6.72" transform="translate(-18.86 -52.01)"/><path class="cls-13" d="M345.65,324a2.7,2.7,0,0,1,3.64,1.13" transform="translate(-18.86 -52.01)"/><path class="cls-13" d="M331.28,312.53a5.18,5.18,0,0,1,4.82,1.1" transform="translate(-18.86 -52.01)"/><path class="cls-13" d="M286.74,319.2a7.33,7.33,0,0,1,6.21-2.34" transform="translate(-18.86 -52.01)"/><path class="cls-13" d="M277.71,300.34a6.69,6.69,0,0,1,5-1.18" transform="translate(-18.86 -52.01)"/><path class="cls-1" d="M279.57,345.09a12.8,12.8,0,0,0-2.93,3.3Z" transform="translate(-18.86 -52.01)"/><path class="cls-13" d="M280.53,340.55c1.58-1.13,4.1,1.4,5.55.11a2.33,2.33,0,0,0,.49-2.17,7.26,7.26,0,0,1-.29-2.29" transform="translate(-18.86 -52.01)"/><path class="cls-13" d="M325.12,333.61a18.09,18.09,0,0,1,1.1,12.82" transform="translate(-18.86 -52.01)"/><path class="cls-13" d="M336.74,339.78a8.28,8.28,0,0,1-1,5.5" transform="translate(-18.86 -52.01)"/><path class="cls-14" d="M321.11,436.09l-10.44-32.85c-9.8-10.09-27.8-19.33-29.36-33.3-2-17.94-4.77-17.22-4.77-21.68a54,54,0,0,0,2.76-6.79,36.67,36.67,0,0,0,1-5.41,3.64,3.64,0,0,1,3.84-3.11,6.15,6.15,0,0,1,3.49,1.36,9.35,9.35,0,0,1,3,6.31,27.46,27.46,0,0,1-.52,7.12,46.24,46.24,0,0,1,3.83,12.18c0.85-3.36,1.43-6.73,2.28-10.09,0.21-.13.12-0.39,0.32-0.52-1.72-3.12-.44-3-3.89-10-5.81-11.64-12.18-22.81-17.18-37.59a8.62,8.62,0,0,1-.19-4.24c1.17-4.4,5.66-3.7,7.76-1.33a8.16,8.16,0,0,1,1.35,2.1A115.62,115.62,0,0,0,295.11,316l12,15.84s3.57-3.35,4.07-4.78h0c0.47-1.43,0-12.69,0-12.69s-0.72,2.16-2.63,2.16c-1.38,0-4.12,1-6.26-1.12a5.21,5.21,0,0,1-.61-6.52l4.47-7a7.48,7.48,0,0,1,7.66-1.44,36.59,36.59,0,0,1,9.1,5.51,17.83,17.83,0,0,1,7.66,1c3.6,1.44,7.57,6,7.57,6s4.08,0,6,1.18c0.48,0.3,7.32,9.53,5.59,17.2-1,4.57-1.41,11.13-1.89,12.92l-0.12,44.2L356,417.79" transform="translate(-18.86 -52.01)"/><path class="cls-14" d="M324,307.59a78.63,78.63,0,0,1,2.73,20,10.64,10.64,0,0,0,.36,3.36,3.31,3.31,0,0,0,2.29,2.29" transform="translate(-18.86 -52.01)"/><path class="cls-14" d="M338.11,314.16c3,6.26-.07,20.24.15,21.23a3.52,3.52,0,0,0,1.69,2.4" transform="translate(-18.86 -52.01)"/><path class="cls-14" d="M312.33,306.74c-0.35,2-.64,4.3-1,6.29a11.61,11.61,0,0,1-4-8" transform="translate(-18.86 -52.01)"/><path class="cls-14" d="M293.17,360.09L291,361" transform="translate(-18.86 -52.01)"/><path class="cls-14" d="M293.72,361.82a12.53,12.53,0,0,0,0,5.06" transform="translate(-18.86 -52.01)"/><path class="cls-14" d="M306.36,343.14l2.39,4.31" transform="translate(-18.86 -52.01)"/><path class="cls-14" d="M311,327.36l2.38-3.36" transform="translate(-18.86 -52.01)"/><path class="cls-14" d="M344.43,343.14l-0.72,2.63" transform="translate(-18.86 -52.01)"/><path class="cls-14" d="M338.61,335.93l2.11-6.72" transform="translate(-18.86 -52.01)"/><path class="cls-14" d="M345.65,324a2.7,2.7,0,0,1,3.64,1.13" transform="translate(-18.86 -52.01)"/><path class="cls-14" d="M331.28,312.53a5.18,5.18,0,0,1,4.82,1.1" transform="translate(-18.86 -52.01)"/><path class="cls-14" d="M286.74,319.2a7.33,7.33,0,0,1,6.21-2.34" transform="translate(-18.86 -52.01)"/><path class="cls-14" d="M277.71,300.34a6.69,6.69,0,0,1,5-1.18" transform="translate(-18.86 -52.01)"/><path class="cls-14" d="M279.57,345.09a12.8,12.8,0,0,0-2.93,3.3" transform="translate(-18.86 -52.01)"/><path class="cls-14" d="M280.53,340.55c1.58-1.13,4.1,1.4,5.55.11a2.33,2.33,0,0,0,.49-2.17,7.26,7.26,0,0,1-.29-2.29" transform="translate(-18.86 -52.01)"/><path class="cls-14" d="M325.12,333.61a18.09,18.09,0,0,1,1.1,12.82" transform="translate(-18.86 -52.01)"/><path class="cls-14" d="M336.74,339.78a8.28,8.28,0,0,1-1,5.5" transform="translate(-18.86 -52.01)"/><path class="cls-6" d="M240.05,354.79a6.06,6.06,0,0,1-.09,2.08c-0.65,3-2.53,11.78-3.22,16.58-0.82,5.86-10.29,24-10.29,24s-8.72,10.84-13.16,16.48c-2.18,2.77-5.63,14-8.56,24.66q-5.55-1.68-11-3.62c-3-1.07-6-2.2-9-3.37A147.09,147.09,0,0,1,169.11,424c1.66-6,2.77-10.67,2.75-10.94-0.05-.63,3.56-7.58,3.56-7.58L172.27,364l-1.86-6.31a47.39,47.39,0,0,1-1.83-10,48.34,48.34,0,0,1,1.29-15.33l5.43-8.06,2.54-.19,7.86-11s4.25-1.28,5.34,1.92-3.54,9.18-3.54,9.18l-1.59,9.87,3.78,9.24,2,0.72s0.66-16.27.21-19.52L196,309.73a70.54,70.54,0,0,0,3.26-7.46c0.76-2.49,5.23-5,7.8-.59a6.43,6.43,0,0,1,.4,5.27c-1.05,3.05-1.92,5.45-1.92,5.45s-1,12.58-1.25,12.93,1.85,18.73,1.85,18.73l1.64,0.73,0.58-17.55,3.41-16.49s-0.28-7.93,5.31-7a4.32,4.32,0,0,1,4.11,2.56c1.49,2.85.07,21.83,0.07,21.83l1.38,19.62,2.21,15.13,2.6-10.37s0.15-14.86,9.53-16.13c0,0,2.79-.5,3.36,1.44s-1.39,5.9-1.11,9.7C239.48,350.23,239.86,353.24,240.05,354.79Z" transform="translate(-18.86 -52.01)"/><path id="_Clipping_Path_5" data-name="&lt;Clipping Path&gt;" class="cls-1" d="M237.2,336.42c-0.43-2-3.24-1.69-3.24-1.69-9.45.56-10.72,15.37-10.72,15.37l-3.38,10.14L218.8,345l0.11-19.67s2.86-18.82,1.58-21.78a4.3,4.3,0,0,0-3.91-2.86c-5.5-1.38-5.82,6.55-5.82,6.55l-4.64,16.18-1.9,17.45-1.58-.85s-0.75-18.51-.43-18.82,2.23-12.8,2.23-12.8,1-2.32,2.32-5.29a6.41,6.41,0,0,0,0-5.29c-2.23-4.55-6.87-2.43-7.82,0a70.49,70.49,0,0,1-3.81,7.19l-5.3,14.49c0.2,3.27-1.68,19.45-1.68,19.45l-1.9-.87-3.07-9.5,2.33-9.73s5.07-5.6,4.23-8.88-5.18-2.32-5.18-2.32L175.88,318h-2.55l-6,7.62a48.24,48.24,0,0,0-1.38,25.29l1.38,6.43v41.56s-4.12,6.66-4.12,7.29c0,0.29-1.7,5.54-4.08,12.09,10.37,6.1,19.3,10.82,25.63,13.31,3,1.18,6,2.3,9,3.37,3.8-10.67,8.24-22.09,10.69-24.75,4.86-5.29,14.37-15.44,14.37-15.44s10.82-17.37,12.08-23.15c1-4.74,3.58-13.34,4.46-16.3a5.86,5.86,0,0,0,.25-2.07c-0.07-1.56-.22-4.59-0.22-7.27C235.36,342.2,237.62,338.39,237.2,336.42Z" transform="translate(-18.86 -52.01)"/><g class="cls-15"><path class="cls-3" d="M172.3,332.24c1.61-2,4.94-2.79,6.81-1a7.13,7.13,0,0,1,1.71,4,8.54,8.54,0,0,0,1.51,4.12c1,1.12,2.89,1.56,3.91.49l0.4,6.57A26,26,0,0,0,190.09,333c0-2.27-.39-4.59.14-6.8s2.24-4.37,4.52-4.47c2.52-.11,4.51,2.34,5,4.82s-0.08,5-.24,7.54a23,23,0,0,0,2.17,11.21l1.59-3.22,1.43,6.45,1.24-14.21a10.23,10.23,0,0,1,.87-3.9,3.48,3.48,0,0,1,3.21-2c1.8,0.18,2.84,2.1,3.44,3.81,4.51,12.74,2.65,26.74.74,40.12,1.25,0.22,2.3-1,2.62-2.27a29.9,29.9,0,0,1,.67-3.75c0.47-1.18,1.92-2.16,3-1.48,1.58,1,.47,4.06,2.13,4.91a22.84,22.84,0,0,1,4.53-10.93c1.11-1.44,2.77-2.87,4.53-2.41a3.56,3.56,0,0,1,2.36,3c0.19,1.34,2.13-4.2,1.8-2.89,0.76-7.71-.76-8.53,0-16.24,0.14-1.39,2.39-3.81,1.43-4.83s-3.63-2.39-4.84-1.83-5.14,2.51-5.92,3.59c-4.91,6.78-4.58,16.61-6.11,24.85-1.3-12.56-2.6-25.33-.3-37.74,1.27-6.85,3.61-14,1.4-20.59-1-3-3.69-6-6.81-5.46-2.52.46-4,3-5.07,5.36-3.44,7.9-5,16.48-6.48,25L208.76,303a17.34,17.34,0,0,0,.58-6.75c-0.4-2.24-1.93-4.43-4.16-4.9s-4.4.84-6.06,2.36c-5.94,5.44-8.16,13.73-10.09,21.55a15.49,15.49,0,0,0,1.16-6.3c-0.21-2.14-1.57-4.33-3.68-4.79-2.72-.6-5.2,1.83-6.39,4.35s-1.79,5.41-3.69,7.45c-1.39-1.56-4-1.47-5.75-.32a11.17,11.17,0,0,0-3.65,5,46.52,46.52,0,0,0-3.87,22.48,8.22,8.22,0,0,1,8.21-4.67l-0.6-5.11" transform="translate(-18.86 -52.01)"/><path class="cls-3" d="M178.89,348.51l-0.25,3.79a1.82,1.82,0,0,1,2.77-.7,4,4,0,0,1,.63-2.34c0.32-.76.35-1.84-0.39-2.2s-1.75.58-2.21,1.44l-0.12-.94Z" transform="translate(-18.86 -52.01)"/><path class="cls-3" d="M193.23,346.25a8.79,8.79,0,0,0-2,4.18,4.3,4.3,0,0,1,1.46-1.07,1.47,1.47,0,0,1,1.66.37,2.56,2.56,0,0,0,.64.92,0.8,0.8,0,0,0,1-.36,2.32,2.32,0,0,0,.26-1.1,6.19,6.19,0,0,0-.12-2.17,2.1,2.1,0,0,0-1.44-1.5,1.29,1.29,0,0,0-1.56,1.1Z" transform="translate(-18.86 -52.01)"/><path class="cls-3" d="M207.12,349.69a11.29,11.29,0,0,0-2.1,5,4.37,4.37,0,0,0,1.94-1,3.87,3.87,0,0,1,2-1,1.39,1.39,0,0,1,1.56,1.22,9.39,9.39,0,0,1,.08-2.54,5.28,5.28,0,0,0-.19-2.52,2.11,2.11,0,0,0-1.93-1.41,1.34,1.34,0,0,0-1.18,1.79Z" transform="translate(-18.86 -52.01)"/><path class="cls-3" d="M168.91,354.71a9.94,9.94,0,0,0-1.16,4.71,1.65,1.65,0,0,1,1.46-1.47,3.34,3.34,0,0,1,2.14.57,5.79,5.79,0,0,0,.14-2.29,2,2,0,0,0-1.47-1.61,1.21,1.21,0,0,0-1.39,1.35l-0.24-.58Z" transform="translate(-18.86 -52.01)"/><path id="_Path_" data-name="&lt;Path&gt;" class="cls-16" d="M172.3,332.24c1.61-2,4.94-2.79,6.81-1a7.13,7.13,0,0,1,1.71,4,8.54,8.54,0,0,0,1.51,4.12c1,1.12,2.89,1.56,3.91.49l0.4,6.57A26,26,0,0,0,190.09,333c0-2.27-.39-4.59.14-6.8s2.24-4.37,4.52-4.47c2.52-.11,4.51,2.34,5,4.82s-0.08,5-.24,7.54a23,23,0,0,0,2.17,11.21l1.59-3.22,1.43,6.45,1.24-14.21a10.23,10.23,0,0,1,.87-3.9,3.48,3.48,0,0,1,3.21-2c1.8,0.18,2.84,2.1,3.44,3.81,4.51,12.74,2.65,26.74.74,40.12,1.25,0.22,2.3-1,2.62-2.27a29.9,29.9,0,0,1,.67-3.75c0.47-1.18,1.92-2.16,3-1.48,1.58,1,.47,4.06,2.13,4.91a22.84,22.84,0,0,1,4.53-10.93c1.11-1.44,2.77-2.87,4.53-2.41a3.56,3.56,0,0,1,2.36,3c0.19,1.34,2.13-4.2,1.8-2.89,0.76-7.71-.76-8.53,0-16.24,0.14-1.39,2.39-3.81,1.43-4.83s-3.63-2.39-4.84-1.83-5.14,2.51-5.92,3.59c-4.91,6.78-4.58,16.61-6.11,24.85-1.3-12.56-2.6-25.33-.3-37.74,1.27-6.85,3.61-14,1.4-20.59-1-3-3.69-6-6.81-5.46-2.52.46-4,3-5.07,5.36-3.44,7.9-5,16.48-6.48,25L208.76,303a17.34,17.34,0,0,0,.58-6.75c-0.4-2.24-1.93-4.43-4.16-4.9s-4.4.84-6.06,2.36c-5.94,5.44-8.16,13.73-10.09,21.55a15.49,15.49,0,0,0,1.16-6.3c-0.21-2.14-1.57-4.33-3.68-4.79-2.72-.6-5.2,1.83-6.39,4.35s-1.79,5.41-3.69,7.45c-1.39-1.56-4-1.47-5.75-.32a11.17,11.17,0,0,0-3.65,5,46.52,46.52,0,0,0-3.87,22.48,8.22,8.22,0,0,1,8.21-4.67l-0.6-5.11" transform="translate(-18.86 -52.01)"/><g class="cls-12"><path class="cls-1" d="M178.89,348.51l-0.25,3.79a1.82,1.82,0,0,1,2.77-.7,4,4,0,0,1,.63-2.34c0.32-.76.35-1.84-0.39-2.2s-1.75.58-2.21,1.44l-0.12-.94Z" transform="translate(-18.86 -52.01)"/><path class="cls-1" d="M193.23,346.25a8.79,8.79,0,0,0-2,4.18,4.3,4.3,0,0,1,1.46-1.07,1.47,1.47,0,0,1,1.66.37,2.56,2.56,0,0,0,.64.92,0.8,0.8,0,0,0,1-.36,2.32,2.32,0,0,0,.26-1.1,6.19,6.19,0,0,0-.12-2.17,2.1,2.1,0,0,0-1.44-1.5,1.29,1.29,0,0,0-1.56,1.1Z" transform="translate(-18.86 -52.01)"/><path class="cls-1" d="M207.12,349.69a11.29,11.29,0,0,0-2.1,5,4.37,4.37,0,0,0,1.94-1,3.87,3.87,0,0,1,2-1,1.39,1.39,0,0,1,1.56,1.22,9.39,9.39,0,0,1,.08-2.54,5.28,5.28,0,0,0-.19-2.52,2.11,2.11,0,0,0-1.93-1.41,1.34,1.34,0,0,0-1.18,1.79Z" transform="translate(-18.86 -52.01)"/><path class="cls-1" d="M168.91,354.71a9.94,9.94,0,0,0-1.16,4.71,1.65,1.65,0,0,1,1.46-1.47,3.34,3.34,0,0,1,2.14.57,5.79,5.79,0,0,0,.14-2.29,2,2,0,0,0-1.47-1.61,1.21,1.21,0,0,0-1.39,1.35l-0.24-.58Z" transform="translate(-18.86 -52.01)"/></g></g><path class="cls-14" d="M159.11,418.29c2.38-6.55,4.08-11.8,4.08-12.09,0-.63,4.12-7.29,4.12-7.29V357.35l-1.38-6.43a48.25,48.25,0,0,1,1.38-25.29l6-7.62h2.55l8.67-10.36s4.33-1,5.18,2.32-4.23,8.88-4.23,8.88l-2.33,9.73,3.07,9.5,1.9,0.87s1.88-16.18,1.68-19.45l5.3-14.49a70.49,70.49,0,0,0,3.81-7.19c1-2.43,5.6-4.55,7.82,0a6.41,6.41,0,0,1,0,5.29c-1.27,3-2.32,5.29-2.32,5.29s-1.9,12.48-2.23,12.8,0.43,18.82.43,18.82l1.58,0.85,1.9-17.45,4.64-16.18s0.32-7.93,5.82-6.55a4.3,4.3,0,0,1,3.91,2.86c1.27,3-1.58,21.78-1.58,21.78L218.8,345l1.06,15.26,3.38-10.14s1.27-14.81,10.72-15.37c0,0,2.81-.29,3.24,1.69s-1.84,5.78-1.84,9.59c0,2.68.15,5.7,0.22,7.27a5.86,5.86,0,0,1-.25,2.07c-0.88,3-3.41,11.56-4.46,16.3-1.26,5.78-12.08,23.15-12.08,23.15s-9.51,10.15-14.37,15.44c-2.45,2.66-6.89,14.08-10.69,24.75" transform="translate(-18.86 -52.01)"/><path class="cls-2" d="M188,340.52a6,6,0,0,1-1.42,5.7" transform="translate(-18.86 -52.01)"/><path class="cls-2" d="M171.84,354.5c1.38-2.13,2.71-5,2.34-7.56-0.72-4.91-3-10.56-2-15.42l1.93-9.31" transform="translate(-18.86 -52.01)"/><path class="cls-14" d="M211.71,308.12a9.76,9.76,0,0,1,5,0l0.06-1.39" transform="translate(-18.86 -52.01)"/><path class="cls-14" d="M198.58,301.88a3.19,3.19,0,0,0,5-2.67" transform="translate(-18.86 -52.01)"/><path class="cls-14" d="M234.72,336.59a6.14,6.14,0,0,0-4.59,6.33l2.45,0.73" transform="translate(-18.86 -52.01)"/><path class="cls-2" d="M202.54,337.81c0.11,1.68-.09,5.69,0,7.37" transform="translate(-18.86 -52.01)"/><path class="cls-2" d="M204.38,340.14l-0.61,8.24,0-1" transform="translate(-18.86 -52.01)"/><path class="cls-2" d="M219.64,363.31a13.71,13.71,0,0,1-.93,9.06" transform="translate(-18.86 -52.01)"/><path class="cls-14" d="M194.29,348.9c-2.18,2.39-1.86,8.12-.32,11.28" transform="translate(-18.86 -52.01)"/><path class="cls-14" d="M210.4,352.85a11.22,11.22,0,0,1-2.67,7.33" transform="translate(-18.86 -52.01)"/><path class="cls-14" d="M178.41,350a10.22,10.22,0,0,0,1.49,7" transform="translate(-18.86 -52.01)"/><path class="cls-14" d="M169.13,357.51a8.48,8.48,0,0,0,1.54,5.34" transform="translate(-18.86 -52.01)"/><path class="cls-14" d="M181.85,311.41a3.18,3.18,0,0,1,3.5.56l1.24-1.63" transform="translate(-18.86 -52.01)"/><path class="cls-14" d="M192.11,318.75a4.14,4.14,0,0,1,5.29.9" transform="translate(-18.86 -52.01)"/><path class="cls-14" d="M208.13,323.75a6.69,6.69,0,0,1,5.68.12" transform="translate(-18.86 -52.01)"/><path class="cls-14" d="M172.48,332.14a5.42,5.42,0,0,1,5.24-2.6" transform="translate(-18.86 -52.01)"/><path class="cls-14" d="M165.77,341.7a2.84,2.84,0,0,1,2.37-2.66" transform="translate(-18.86 -52.01)"/><circle class="cls-17" cx="404.58" cy="176.39" r="41.45"/><path class="cls-6" d="M470.36,229.48c-8.84,14.49-12,12.54-42.12,27-15.3,7.33-30.09-16.24-20.09-40.43,0.49-1.18,4.81-7.15,4.81-7.15a22.08,22.08,0,0,1,38.58-9.12,23.84,23.84,0,0,1,21.18-5.06c0.35,1,.68,2,1,3,0.12,0.38.25,0.75,0.36,1.13,0.38,1.17.74,2.34,1.07,3.52q1,3.36,1.84,6.76a13.55,13.55,0,0,0-9.84.59c-2.21,1.08-4.06,2.86-6.36,3.74s-5.48.38-6.36-1.92c1.11,4.62,6,3.24,10.62,4.15C472.25,217.09,474.08,223.38,470.36,229.48Z" transform="translate(-18.86 -52.01)"/><path class="cls-18" d="M456.75,222.33s7.42-1,10.94-.48A6.76,6.76,0,0,1,472,224.3a2.36,2.36,0,0,1,.51,1.32l0.4,5.8a2.36,2.36,0,0,1-.64,1.8c-1.45,1.51-5.82,4.26-18.75,5.25C435.28,239.86,456.75,222.33,456.75,222.33Z" transform="translate(-18.86 -52.01)"/><path class="cls-18" d="M451.32,207.34A27.68,27.68,0,0,1,457.4,225c0,6.91-8,30.51-28.49,33.38-21.69,3-39.12-15.52-35.4-37.86C396.08,205,433.91,185.7,451.32,207.34Z" transform="translate(-18.86 -52.01)"/><ellipse class="cls-1" cx="405.96" cy="171.41" rx="31.47" ry="29.79"/><ellipse class="cls-9" cx="405.9" cy="172.97" rx="25.84" ry="24.45"/><path class="cls-17" d="M456.29,223.41c0-16.45-14.09-29.79-31.47-29.79S393.35,207,393.35,223.41" transform="translate(-18.86 -52.01)"/><path class="cls-17" d="M448,243.58a28.83,28.83,0,0,0,8.3-20.16" transform="translate(-18.86 -52.01)"/><path class="cls-17" d="M402.78,244.67a32.3,32.3,0,0,0,22,8.53,32.76,32.76,0,0,0,14.61-3.4" transform="translate(-18.86 -52.01)"/><path class="cls-17" d="M398.24,239.36q0.62,0.92,1.31,1.8" transform="translate(-18.86 -52.01)"/><path class="cls-17" d="M393.35,223.41a28.36,28.36,0,0,0,3,12.71" transform="translate(-18.86 -52.01)"/><path class="cls-18" d="M471,231.57s-5.61-3.92-14.71-.37" transform="translate(-18.86 -52.01)"/><path class="cls-18" d="M466.18,234.29a57.79,57.79,0,0,1-11.64,1.83" transform="translate(-18.86 -52.01)"/><path class="cls-18" d="M469.09,233.05a5.34,5.34,0,0,1-1.4.72" transform="translate(-18.86 -52.01)"/><path class="cls-1" d="M474.08,198.83c-0.11-.38-0.24-0.75-0.36-1.13-1.91-5.92-4.37-12.42-7.36-19.28-0.55-1.27-1.13-2.56-1.71-3.86l-0.67.06c-2.87.29-5.89,0.65-8.25,2.28s-3.77,5.07-2.24,7.52,5.43,3.78,4.81,6.55c-6.41,3.61-14.23,3.19-21.36,5A34.78,34.78,0,0,0,425,201.6h0a36.71,36.71,0,0,0-3.24,2.72,12.81,12.81,0,0,0-1.32,1.42,0,0,0,0,0,0,0,4.89,4.89,0,0,0-1.13,2.54c-0.25,2.67,2.18,4.49,4.77,5.65a0.58,0.58,0,0,1,0,1.08,14.9,14.9,0,0,0-4.67,2.7l0,0a1.16,1.16,0,0,0,1,2l0.4,0a7.55,7.55,0,0,1,3,.36,3.63,3.63,0,0,1,2.71,2.86c0.16,2-2.15,3.86-5.15,4.09-0.73.07-.17,0.94,0.9,1.12a16,16,0,0,0,6.4-.52c2.51-.6,5.19-1.47,6.61-3.62a4.52,4.52,0,0,0,.6-3.18,3.22,3.22,0,0,0-2.66-2.92,87.49,87.49,0,0,0,13.72-2.75h0l1.41-.43a13.16,13.16,0,0,0,3.87-1.69,5.39,5.39,0,0,0,1.69-1.86c1-2-.43-5.19-2.65-4.77,6.45-2.53,13.27-4,19.79-6.34C472,199.67,473.06,199.27,474.08,198.83Z" transform="translate(-18.86 -52.01)"/><path class="cls-6" d="M424.64,112.33a127,127,0,0,1-19.9,14c-36.41,21.54-77.54,34.44-119.38,40.73s-84.44,6.1-126.6,2.63c-8.28-.68-16.7-1.52-24.31-4.86-6.45-2.84-12.3-7.78-15-14.17,9.13-10.4,17.62-20.92,27.07-30.85q3.38-3.55,6.92-7c2-1.91,4-3.79,6.14-5.63C162,105.11,164.43,103,167,101c3.55-2.76,7.29-5.41,11.29-7.94,1-.63,2-1.24,2.93-1.84,99.71-62,173.1-41.74,222.06,0Q408.85,96,414,101c2.08,2,4.09,4.09,6,6.19,0.22,0.22.42,0.45,0.63,0.69Q422.7,110.11,424.64,112.33Z" transform="translate(-18.86 -52.01)"/><path class="cls-18" d="M428.58,102.39L93.11,103.92l5.07-7.6a13.15,13.15,0,0,1,10.94-5.85H412.68a13.15,13.15,0,0,1,10.25,4.9Z" transform="translate(-18.86 -52.01)"/><rect class="cls-19" x="195.3" y="100.67" width="86.68" height="86.68" rx="34.15" ry="34.15"/><path class="cls-20" d="M229.91,203.34v12.32a7,7,0,0,0,7,7h42.27a7,7,0,0,0,7-7c0.05-5.54.35-12.37,0.35-12.37H229.91Z" transform="translate(-18.86 -52.01)"/><path class="cls-21" d="M384.62,207.46H137.41a6.33,6.33,0,0,1-5.9-4L93.38,105.56A3.9,3.9,0,0,1,97,100.24H425a3.9,3.9,0,0,1,3.64,5.32l-38.13,97.86A6.33,6.33,0,0,1,384.62,207.46Z" transform="translate(-18.86 -52.01)"/><polygon class="cls-9" points="367.59 146.92 116.12 146.92 81.52 54.43 402.03 54.43 367.59 146.92"/><rect class="cls-9" x="211.32" y="155.32" width="56.06" height="3.84"/><path class="cls-3" d="M349.72,195H172.14a2.21,2.21,0,0,1-2.08-1L144.8,113.71c-0.28-.9.5-1.63,1.76-1.63H375.29c1.26,0,2,.73,1.76,1.63L351.8,194A2.21,2.21,0,0,1,349.72,195Z" transform="translate(-18.86 -52.01)"/><polygon class="cls-9" points="330.2 141.13 153.94 141.13 132.47 70.62 351.67 70.62 330.2 141.13"/><path class="cls-1" d="M198.1,140.13H164.73c-0.82,0-1.37.44-1.21,1a1.83,1.83,0,0,0,1.76,1h33.18c0.82,0,1.4-.44,1.31-1A1.63,1.63,0,0,0,198.1,140.13Z" transform="translate(-18.86 -52.01)"/><path class="cls-1" d="M199.21,146.22H170.83c-0.81,0-1.35.43-1.21,1a1.77,1.77,0,0,0,1.72,1h28.22c0.8,0,1.38-.43,1.29-1A1.6,1.6,0,0,0,199.21,146.22Z" transform="translate(-18.86 -52.01)"/><path class="cls-16" d="M200.29,152.1h-32.2c-0.8,0-1.32.41-1.18,0.92a1.76,1.76,0,0,0,1.69.92h32c0.79,0,1.36-.41,1.27-0.92A1.57,1.57,0,0,0,200.29,152.1Z" transform="translate(-18.86 -52.01)"/><path class="cls-1" d="M201.33,157.78H182.42c-0.78,0-1.32.4-1.2,0.89a1.65,1.65,0,0,0,1.63.89h18.81c0.78,0,1.34-.4,1.25-0.89A1.54,1.54,0,0,0,201.33,157.78Z" transform="translate(-18.86 -52.01)"/><path class="cls-1" d="M202.34,163.26H171.22c-0.77,0-1.28.39-1.15,0.86a1.69,1.69,0,0,0,1.63.86h30.95c0.76,0,1.31-.38,1.23-0.86A1.51,1.51,0,0,0,202.34,163.26Z" transform="translate(-18.86 -52.01)"/><path class="cls-1" d="M203.31,168.57H178.19c-0.76,0-1.27.37-1.14,0.83a1.63,1.63,0,0,0,1.58.83h25c0.75,0,1.29-.37,1.21-0.83A1.48,1.48,0,0,0,203.31,168.57Z" transform="translate(-18.86 -52.01)"/><path class="cls-1" d="M204.25,173.7H179.54c-0.74,0-1.25.36-1.13,0.81a1.6,1.6,0,0,0,1.55.8h24.59c0.74,0,1.27-.36,1.19-0.8A1.46,1.46,0,0,0,204.25,173.7Z" transform="translate(-18.86 -52.01)"/><path class="cls-1" d="M205.16,178.66h-27c-0.73,0-1.23.35-1.11,0.78a1.59,1.59,0,0,0,1.53.78h26.83c0.73,0,1.26-.35,1.18-0.78A1.43,1.43,0,0,0,205.16,178.66Z" transform="translate(-18.86 -52.01)"/><path class="cls-16" d="M206,183.47H188.63c-0.72,0-1.22.34-1.12,0.76A1.51,1.51,0,0,0,189,185h17.33c0.72,0,1.24-.34,1.16-0.75A1.41,1.41,0,0,0,206,183.47Z" transform="translate(-18.86 -52.01)"/><path class="cls-16" d="M196.94,133.81H172.07c-0.84,0-1.4.46-1.25,1a1.82,1.82,0,0,0,1.78,1h24.72c0.83,0,1.43-.46,1.33-1A1.67,1.67,0,0,0,196.94,133.81Z" transform="translate(-18.86 -52.01)"/><path class="cls-1" d="M195.73,127.26H161.11c-0.85,0-1.41.48-1.24,1.07a1.92,1.92,0,0,0,1.84,1.06h34.42c0.85,0,1.45-.47,1.35-1.06A1.7,1.7,0,0,0,195.73,127.26Z" transform="translate(-18.86 -52.01)"/><path class="cls-1" d="M206.9,188.13H178.21c-0.71,0-1.19.33-1.07,0.73a1.55,1.55,0,0,0,1.48.73h28.55c0.7,0,1.22-.33,1.15-0.73A1.39,1.39,0,0,0,206.9,188.13Z" transform="translate(-18.86 -52.01)"/><polygon class="cls-16" points="190.96 90.35 197.43 90.35 197.11 87.88 190.59 87.88 190.96 90.35"/><polygon class="cls-16" points="191.86 96.36 198.22 96.36 197.91 93.98 191.5 93.98 191.86 96.36"/><polygon class="cls-16" points="192.73 102.17 198.98 102.17 198.68 99.86 192.39 99.86 192.73 102.17"/><polygon class="cls-16" points="193.57 107.77 199.72 107.77 199.42 105.55 193.24 105.55 193.57 107.77"/><polygon class="cls-16" points="194.39 113.19 200.43 113.19 200.15 111.04 194.06 111.04 194.39 113.19"/><polygon class="cls-16" points="195.18 118.43 201.11 118.43 200.84 116.35 194.86 116.35 195.18 118.43"/><polygon class="cls-16" points="195.94 123.5 201.78 123.5 201.51 121.49 195.63 121.49 195.94 123.5"/><polygon class="cls-16" points="196.67 128.41 202.42 128.41 202.17 126.46 196.38 126.46 196.67 128.41"/><polygon class="cls-16" points="197.39 133.16 203.05 133.16 202.8 131.28 197.1 131.28 197.39 133.16"/><polygon class="cls-16" points="190.02 84.11 196.61 84.11 196.28 81.55 189.63 81.55 190.02 84.11"/><polygon class="cls-16" points="189.05 77.64 195.76 77.64 195.41 74.98 188.65 74.98 189.05 77.64"/><polygon class="cls-16" points="198.08 137.77 203.65 137.77 203.41 135.94 197.81 135.94 198.08 137.77"/><path class="cls-1" d="M251,179.44a1.12,1.12,0,0,1,1.3-.78h95.82c0.73,0,1.22.35,1.1,0.78a1.61,1.61,0,0,1-1.54.78H252.39A1.2,1.2,0,0,1,251,179.44Z" transform="translate(-18.86 -52.01)"/><path class="cls-1" d="M349.13,175.31H296.07a1,1,0,0,1-1.25-.8,1.35,1.35,0,0,1,1.43-.81h53.33c0.74,0,1.24.36,1.11,0.81A1.64,1.64,0,0,1,349.13,175.31Z" transform="translate(-18.86 -52.01)"/><path class="cls-16" d="M283.48,175.31H267a1.16,1.16,0,0,1-1.33-.8,1.21,1.21,0,0,1,1.36-.81H283.6a1.09,1.09,0,0,1,1.28.81A1.29,1.29,0,0,1,283.48,175.31Z" transform="translate(-18.86 -52.01)"/><path class="cls-1" d="M317.92,170.23H243.08a1.29,1.29,0,0,1-1.41-.83,1.12,1.12,0,0,1,1.32-.83h75.24c0.76,0,1.3.37,1.21,0.83A1.49,1.49,0,0,1,317.92,170.23Z" transform="translate(-18.86 -52.01)"/><path class="cls-16" d="M227.43,168.57h5.33a1.33,1.33,0,0,1,1.44.83,1.09,1.09,0,0,1-1.29.83h-5.31a1.36,1.36,0,0,1-1.45-.83A1.06,1.06,0,0,1,227.43,168.57Z" transform="translate(-18.86 -52.01)"/><path class="cls-1" d="M328.75,164.13a1.56,1.56,0,0,1-1.57.86H256.66a1.24,1.24,0,0,1-1.4-.86,1.2,1.2,0,0,1,1.38-.86h70.91C328.31,163.26,328.85,163.65,328.75,164.13Z" transform="translate(-18.86 -52.01)"/><path class="cls-1" d="M226.87,163.26h20a1.28,1.28,0,0,1,1.43.86A1.17,1.17,0,0,1,247,165H227.05a1.39,1.39,0,0,1-1.48-.86A1.08,1.08,0,0,1,226.87,163.26Z" transform="translate(-18.86 -52.01)"/><path class="cls-1" d="M226.28,157.78h76.93c0.78,0,1.36.4,1.3,0.89a1.45,1.45,0,0,1-1.53.89H226.47a1.41,1.41,0,0,1-1.51-.89A1.1,1.1,0,0,1,226.28,157.78Z" transform="translate(-18.86 -52.01)"/><path class="cls-1" d="M276.23,153.94a1.2,1.2,0,0,1-1.39-.92,1.34,1.34,0,0,1,1.48-.92h40.59c0.79,0,1.37.41,1.28,0.92a1.55,1.55,0,0,1-1.59.92H276.23Z" transform="translate(-18.86 -52.01)"/><path class="cls-1" d="M225.68,152.1h35.13a1,1,0,1,1,0,1.84H225.88a1.44,1.44,0,0,1-1.53-.92A1.12,1.12,0,0,1,225.68,152.1Z" transform="translate(-18.86 -52.01)"/><path class="cls-1" d="M356.93,148.13h-96.7a1,1,0,1,1,0-1.91h97.25c0.81,0,1.34.43,1.19,1A1.81,1.81,0,0,1,356.93,148.13Z" transform="translate(-18.86 -52.01)"/><path class="cls-1" d="M358.65,142.11H273.56a1.26,1.26,0,0,1-1.45-1,1.37,1.37,0,0,1,1.52-1h85.59c0.82,0,1.36.44,1.2,1A1.85,1.85,0,0,1,358.65,142.11Z" transform="translate(-18.86 -52.01)"/><path class="cls-16" d="M360.45,135.86H342.63c-0.83,0-1.4-.46-1.27-1a1.77,1.77,0,0,1,1.76-1H361c0.84,0,1.39.46,1.22,1A1.89,1.89,0,0,1,360.45,135.86Z" transform="translate(-18.86 -52.01)"/><path class="cls-1" d="M330.16,135.86H264.73a1.33,1.33,0,0,1-1.5-1,1.36,1.36,0,0,1,1.53-1h65.82c0.84,0,1.43.46,1.31,1A1.7,1.7,0,0,1,330.16,135.86Z" transform="translate(-18.86 -52.01)"/><path class="cls-1" d="M229,183.47h60.42a1,1,0,0,1,1.23.76,1.28,1.28,0,0,1-1.37.75H229.19a1.3,1.3,0,0,1-1.38-.75A1,1,0,0,1,229,183.47Z" transform="translate(-18.86 -52.01)"/><path class="cls-1" d="M229.52,188.13h92.83c0.71,0,1.21.33,1.13,0.73a1.43,1.43,0,0,1-1.43.73H229.68a1.28,1.28,0,0,1-1.36-.73A1,1,0,0,1,229.52,188.13Z" transform="translate(-18.86 -52.01)"/><path class="cls-1" d="M326.91,129.39H279.65a1.29,1.29,0,0,1-1.49-1.06,1.46,1.46,0,0,1,1.6-1.07h47.55c0.85,0,1.46.48,1.34,1.07A1.71,1.71,0,0,1,326.91,129.39Z" transform="translate(-18.86 -52.01)"/><path class="cls-16" d="M266.25,129.39h-43a1.56,1.56,0,0,1-1.66-1.06,1.21,1.21,0,0,1,1.43-1.07h43.25a1.35,1.35,0,0,1,1.53,1.07A1.4,1.4,0,0,1,266.25,129.39Z" transform="translate(-18.86 -52.01)"/><path class="cls-16" d="M302.85,183.47c0.72,0,1.25.34,1.19,0.76a1.35,1.35,0,0,1-1.41.75H298a1,1,0,0,1-1.21-.75,1.32,1.32,0,0,1,1.39-.76h4.69Z" transform="translate(-18.86 -52.01)"/><path class="cls-16" d="M245.54,179.44a1.1,1.1,0,0,1-1.28.78H237.9a1.27,1.27,0,0,1-1.38-.78,1.07,1.07,0,0,1,1.26-.78h6.4A1.24,1.24,0,0,1,245.54,179.44Z" transform="translate(-18.86 -52.01)"/><path class="cls-16" d="M322.29,158.67a1.55,1.55,0,0,1-1.58.89h-7.44c-0.78,0-1.34-.4-1.27-0.89a1.5,1.5,0,0,1,1.56-.89H321C321.83,157.78,322.39,158.18,322.29,158.67Z" transform="translate(-18.86 -52.01)"/><path class="cls-16" d="M345.5,163.26c0.77,0,1.29.39,1.16,0.86A1.66,1.66,0,0,1,345,165h-5.93c-0.76,0-1.29-.38-1.18-0.86a1.62,1.62,0,0,1,1.6-.86h6Z" transform="translate(-18.86 -52.01)"/><path class="cls-16" d="M248.51,148.13a1.35,1.35,0,0,1-1.5-1,1.24,1.24,0,0,1,1.43-1h6.31a1.32,1.32,0,0,1,1.48,1,1.27,1.27,0,0,1-1.44,1h-6.28Z" transform="translate(-18.86 -52.01)"/><path class="cls-1" d="M162.57,117.34a2.13,2.13,0,0,1-2.1,3,4.44,4.44,0,0,1-3.94-3,2.14,2.14,0,0,1,2.08-3A4.43,4.43,0,0,1,162.57,117.34Z" transform="translate(-18.86 -52.01)"/><path class="cls-1" d="M170.71,117.39a2.2,2.2,0,0,1-2.2,2.95,4.26,4.26,0,0,1-3.84-2.95,2.21,2.21,0,0,1,2.18-3A4.25,4.25,0,0,1,170.71,117.39Z" transform="translate(-18.86 -52.01)"/><path class="cls-1" d="M178.94,117.34a2.27,2.27,0,0,1-2.3,3,4.09,4.09,0,0,1-3.75-3,2.28,2.28,0,0,1,2.28-3A4.08,4.08,0,0,1,178.94,117.34Z" transform="translate(-18.86 -52.01)"/><polygon class="cls-22" points="81.52 54.43 108.47 126.46 140.98 54.43 81.52 54.43"/><polygon class="cls-22" points="126.99 146.92 180.91 54.43 237.37 54.43 158 146.92 126.99 146.92"/><polygon class="cls-22" points="261.7 53.98 177.64 146.92 190.59 146.92 277.66 54.43 261.7 53.98"/><polygon class="cls-22" points="278.3 146.92 370.68 54.43 383.72 54.43 288.47 146.92 278.3 146.92"/><path class="cls-18" d="M171.9,239.07h-21.1a5,5,0,0,0-5,5v10.26a5,5,0,0,0,5,5h5.51l4.18,9.47,5.89-9.47h5.51a5,5,0,0,0,5-5V244A5,5,0,0,0,171.9,239.07Z" transform="translate(-18.86 -52.01)"/><path class="cls-9" d="M158.42,244.94a1,1,0,0,1,1-1,1,1,0,0,1,1,.92A1,1,0,0,1,158.42,244.94Zm0.22,2.09h1.61v6.86h-1.61V247Z" transform="translate(-18.86 -52.01)"/><path class="cls-9" d="M164.12,246.67v0.41H166v1.29h-1.84v5.52h-1.61v-5.52h-1.13v-1.29h1.13v-0.44a2.22,2.22,0,0,1,2.45-2.38,2.57,2.57,0,0,1,1.45.37L166,245.85a1.58,1.58,0,0,0-.89-0.28A0.94,0.94,0,0,0,164.12,246.67Z" transform="translate(-18.86 -52.01)"/><path class="cls-18" d="M236.12,240.5H215a5,5,0,0,0-5,5v10.26a5,5,0,0,0,5,5h5.51l4.18,9.47,5.89-9.47h5.51a5,5,0,0,0,5-5V245.46A5,5,0,0,0,236.12,240.5Z" transform="translate(-18.86 -52.01)"/><path class="cls-9" d="M219.46,252.41h-5.38a2.08,2.08,0,0,0,2.22,1.64,2.46,2.46,0,0,0,1.86-.75l0.86,1a3.85,3.85,0,0,1-6.55-2.4,3.41,3.41,0,0,1,3.55-3.51,3.35,3.35,0,0,1,3.47,3.55C219.48,252.07,219.47,252.26,219.46,252.41Zm-5.4-1.07H218a1.87,1.87,0,0,0-1.94-1.67A1.9,1.9,0,0,0,214.06,251.35Z" transform="translate(-18.86 -52.01)"/><path class="cls-9" d="M221,245.8h1.61v9.53H221V245.8Z" transform="translate(-18.86 -52.01)"/><path class="cls-9" d="M223.95,254.65l0.62-1.22a4.61,4.61,0,0,0,2.39.68c1,0,1.44-.28,1.44-0.76,0-1.31-4.24-.08-4.24-2.81,0-1.3,1.17-2.15,3-2.15a5.46,5.46,0,0,1,2.57.59l-0.62,1.22a3.75,3.75,0,0,0-2-.51c-1,0-1.44.32-1.44,0.77,0,1.39,4.24.15,4.24,2.84,0,1.29-1.18,2.12-3.11,2.12A5.45,5.45,0,0,1,223.95,254.65Z" transform="translate(-18.86 -52.01)"/><path class="cls-9" d="M237.77,252.41h-5.38a2.08,2.08,0,0,0,2.22,1.64,2.46,2.46,0,0,0,1.86-.75l0.86,1a3.85,3.85,0,0,1-6.55-2.4,3.41,3.41,0,0,1,3.55-3.51,3.35,3.35,0,0,1,3.47,3.55C237.79,252.07,237.78,252.26,237.77,252.41Zm-5.4-1.07h3.89a1.87,1.87,0,0,0-1.94-1.67A1.9,1.9,0,0,0,232.37,251.35Z" transform="translate(-18.86 -52.01)"/><path class="cls-18" d="M298.38,239.9h-21.1a5,5,0,0,0-5,5v10.26a5,5,0,0,0,5,5h5.51l4.18,9.47,5.89-9.47h5.51a5,5,0,0,0,5-5V244.85A5,5,0,0,0,298.38,239.9Z" transform="translate(-18.86 -52.01)"/><path class="cls-9" d="M282.12,247.5v0.41H284v1.29h-1.84v5.52h-1.61V249.2h-1.13v-1.29h1.13v-0.44A2.22,2.22,0,0,1,283,245.1a2.57,2.57,0,0,1,1.45.37L284,246.68a1.58,1.58,0,0,0-.89-0.28A0.94,0.94,0,0,0,282.12,247.5Z" transform="translate(-18.86 -52.01)"/><path class="cls-9" d="M284.42,251.29a3.66,3.66,0,1,1,3.65,3.52A3.45,3.45,0,0,1,284.42,251.29Zm5.69,0a2,2,0,1,0-2,2.15A2,2,0,0,0,290.11,251.29Z" transform="translate(-18.86 -52.01)"/><path class="cls-9" d="M297.23,247.78v1.53a2.06,2.06,0,0,0-.37,0,1.87,1.87,0,0,0-2,2.12v3.33h-1.61v-6.86h1.53v1A2.7,2.7,0,0,1,297.23,247.78Z" transform="translate(-18.86 -52.01)"/><path class="cls-18" d="M359.74,239.07h-21.1a5,5,0,0,0-5,5v10.26a5,5,0,0,0,5,5h5.51l4.18,9.47,5.89-9.47h5.51a5,5,0,0,0,5-5V244A5,5,0,0,0,359.74,239.07Z" transform="translate(-18.86 -52.01)"/><path class="cls-9" d="M346.45,246.69h5.92V248h-5.92v-1.28Zm0,3.11h5.92v1.28h-5.92V249.8Z" transform="translate(-18.86 -52.01)"/><path class="cls-18" d="M204.06,227.19H183a5,5,0,0,0-5,5v10.26a5,5,0,0,0,5,5h5.51l4.18,9.47,5.89-9.47h5.51a5,5,0,0,0,5-5V232.15A5,5,0,0,0,204.06,227.19Z" transform="translate(-18.86 -52.01)"/><path class="cls-9" d="M188.55,231.45h3.07v1.28h-1.46v9.46h1.46v1.29h-3.07v-12Z" transform="translate(-18.86 -52.01)"/><path class="cls-9" d="M195.6,243.48v-1.29H197v-9.46H195.6v-1.28h3.06v12H195.6Z" transform="translate(-18.86 -52.01)"/><path class="cls-18" d="M266.78,226.14h-21.1a5,5,0,0,0-5,5v10.26a5,5,0,0,0,5,5h5.51l4.18,9.47,5.89-9.47h5.51a5,5,0,0,0,5-5V231.1A5,5,0,0,0,266.78,226.14Z" transform="translate(-18.86 -52.01)"/><path class="cls-9" d="M251.94,236.38a1.13,1.13,0,0,1,.76,1.31v2.44a0.86,0.86,0,0,0,1,1h0.27v1.29h-0.64a1.91,1.91,0,0,1-2.18-2.09v-2.65a0.53,0.53,0,0,0-.58-0.62h-0.42v-1.31h0.42a0.53,0.53,0,0,0,.58-0.62v-2.65a1.91,1.91,0,0,1,2.18-2.09h0.64v1.28h-0.27a0.86,0.86,0,0,0-1,1v2.44A1.13,1.13,0,0,1,251.94,236.38Z" transform="translate(-18.86 -52.01)"/><path class="cls-9" d="M261.74,235.72V237H261.3a0.53,0.53,0,0,0-.57.62v2.65a1.92,1.92,0,0,1-2.2,2.09h-0.64V241.1h0.27a0.87,0.87,0,0,0,1-1v-2.44a1.53,1.53,0,0,0,0-2.62v-2.44a0.87,0.87,0,0,0-1-1h-0.27v-1.28h0.64a1.92,1.92,0,0,1,2.2,2.09v2.65a0.53,0.53,0,0,0,.57.62h0.44Z" transform="translate(-18.86 -52.01)"/><path class="cls-18" d="M328.84,224.06h-21.1a5,5,0,0,0-5,5v10.26a5,5,0,0,0,5,5h5.51l4.18,9.47,5.89-9.47h5.51a5,5,0,0,0,5-5V229A5,5,0,0,0,328.84,224.06Z" transform="translate(-18.86 -52.01)"/><path class="cls-9" d="M317.45,231.66a1.05,1.05,0,1,1,2.11,0A1.05,1.05,0,1,1,317.45,231.66Zm2.11,4.9a2.9,2.9,0,0,1-.3,1.1l-0.66,1.81h-1l0.51-2a1,1,0,0,1-.6-1A1,1,0,1,1,319.56,236.55Z" transform="translate(-18.86 -52.01)"/><path class="cls-18" d="M246.36,403.5h21.1a5,5,0,0,0,5-5V388.28a5,5,0,0,0-5-5h-5.51l-1.61-9.47-8.46,9.47h-5.51a5,5,0,0,0-5,5v10.26A5,5,0,0,0,246.36,403.5Z" transform="translate(-18.86 -52.01)"/><path class="cls-9" d="M253.77,391.3L249.34,393l4.43,1.66V396l-5.92-2.3v-1.39l5.92-2.3v1.34Z" transform="translate(-18.86 -52.01)"/><path class="cls-9" d="M258.45,386.63h1.44l-4.24,12.1h-1.44Z" transform="translate(-18.86 -52.01)"/><path class="cls-9" d="M266.11,392.26v1.39l-5.92,2.3v-1.34l4.43-1.66-4.43-1.66V390Z" transform="translate(-18.86 -52.01)"/><path class="cls-18" d="M112.24,328.75h21.1a5,5,0,0,0,5-5V313.53a5,5,0,0,0-5-5h-5.51l1.2-9.47-11.27,9.47h-5.51a5,5,0,0,0-5,5V323.8A5,5,0,0,0,112.24,328.75Z" transform="translate(-18.86 -52.01)"/><path class="cls-9" d="M118.49,322.25a1,1,0,0,1,1-1,1,1,0,0,1,1,1,1,1,0,0,1-1,1A1,1,0,0,1,118.49,322.25Zm0.09-8.08h1.9l-0.32,6h-1.27Z" transform="translate(-18.86 -52.01)"/><path class="cls-9" d="M122.14,316.46h5.92v1.28h-5.92v-1.28Zm0,3.11h5.92v1.29h-5.92v-1.29Z" transform="translate(-18.86 -52.01)"/><path id="_Clipping_Path_6" data-name="&lt;Clipping Path&gt;" class="cls-1" d="M450,317.12a71.81,71.81,0,0,1-1,11.87c-2.9,17.3-12,29.93-22.76,29.93a14.15,14.15,0,0,1-2.86-.3c-11.75-2.49-20.87-20.12-20.87-41.5,0-23.08,10.63-31.25,23.72-31.25S450,294,450,317.12Z" transform="translate(-18.86 -52.01)"/><g class="cls-23"><path class="cls-3" d="M441.43,317.38c0.88,12.38-1.25,24.82-4.81,36.71,8.94-7.34,13.05-18.87,16.77-29.82,2.7-8,5.43-16.15,4.95-24.53s-5-17.1-12.85-20a17.1,17.1,0,0,0-12.12.2c-6.59,2.64-3,4.79-.22,9.53A64.64,64.64,0,0,1,441.43,317.38Z" transform="translate(-18.86 -52.01)"/><path class="cls-11" d="M441.43,317.38c0.88,12.38-1.25,24.82-4.81,36.71,8.94-7.34,13.05-18.87,16.77-29.82,2.7-8,5.43-16.15,4.95-24.53s-5-17.1-12.85-20a17.1,17.1,0,0,0-12.12.2c-6.59,2.64-3,4.79-.22,9.53A64.64,64.64,0,0,1,441.43,317.38Z" transform="translate(-18.86 -52.01)"/></g><path id="_Clipping_Path_7" data-name="&lt;Clipping Path&gt;" class="cls-14" d="M450,317.12a71.81,71.81,0,0,1-1,11.87c-2.9,17.3-12,29.93-22.76,29.93a14.15,14.15,0,0,1-2.86-.3c-11.75-2.49-20.87-20.12-20.87-41.5,0-23.08,10.63-31.25,23.72-31.25S450,294,450,317.12Z" transform="translate(-18.86 -52.01)"/><path class="cls-2" d="M439,338.35a41,41,0,0,1-7.78,14.6" transform="translate(-18.86 -52.01)"/><path class="cls-14" d="M439.8,335.45q-0.19.85-.41,1.69" transform="translate(-18.86 -52.01)"/><path class="cls-2" d="M439.74,317.06a40.93,40.93,0,0,1,.47,16.28" transform="translate(-18.86 -52.01)"/><path class="cls-14" d="M402.57,317.12s27-10.66,47.45,0" transform="translate(-18.86 -52.01)"/><path class="cls-2" d="M426.3,285.87s2.7,10,3,26.26" transform="translate(-18.86 -52.01)"/><path class="cls-21" d="M430.07,298c0.35,3.11-.19,5.76-1.2,5.92s-2.11-2.23-2.46-5.34,0.19-5.76,1.2-5.92S429.72,294.93,430.07,298Z" transform="translate(-18.86 -52.01)"/><path class="cls-14" d="M415.66,366.91H384a7.75,7.75,0,0,1-7.69-6.71,5.33,5.33,0,0,1-.09-1.07V284.54a5.63,5.63,0,0,1,.09-1.08,7.74,7.74,0,0,1,7.69-6.7h89.72a7.66,7.66,0,0,1,3.73,1" transform="translate(-18.86 -52.01)"/></svg>